<svg xmlns="http://www.w3.org/2000/svg" viewBox="0 0 500 500"><g id="freepik--background-complete--inject-12"><path d="M52.93,237.07l1.89,34.72A2.34,2.34,0,0,0,57.14,274l62.48.46a2.34,2.34,0,0,0,2.36-2.33l.2-27a2.34,2.34,0,0,0-2.34-2.36l-38.43,0a2.31,2.31,0,0,1-1.65-.69l-6.63-6.62a2.33,2.33,0,0,0-1.64-.69l-16.2-.12A2.34,2.34,0,0,0,52.93,237.07Z" style="fill:#ebebeb"></path><rect x="53.81" y="238.42" width="68.27" height="40.79" transform="translate(1.9 -0.64) rotate(0.42)" style="fill:#f5f5f5"></rect><path d="M48.5,241.79l4.9,42.58a1.51,1.51,0,0,0,1.49,1.33l66.53.49a1.49,1.49,0,0,0,1.51-1.38l3.66-42.51a1.51,1.51,0,0,0-1.49-1.64L50,240.11A1.51,1.51,0,0,0,48.5,241.79Z" style="fill:#ebebeb"></path><path d="M336.6,243.07l1.63,29.9a2,2,0,0,0,2,1.9l53.8.4a2,2,0,0,0,2-2l.17-23.27a2,2,0,0,0-2-2l-33.08,0a2,2,0,0,1-1.43-.59L354,241.63a2,2,0,0,0-1.41-.59l-13.95-.1A2,2,0,0,0,336.6,243.07Z" style="fill:#ebebeb"></path><rect x="337.36" y="244.23" width="58.78" height="35.13" transform="translate(1.93 -2.68) rotate(0.42)" style="fill:#f5f5f5"></rect><path d="M332.79,247.13,337,283.79a1.29,1.29,0,0,0,1.28,1.15l57.29.42a1.3,1.3,0,0,0,1.3-1.19l3.15-36.6a1.29,1.29,0,0,0-1.28-1.41l-64.66-.48A1.3,1.3,0,0,0,332.79,247.13Z" style="fill:#ebebeb"></path><rect x="348.41" y="47.14" width="95.61" height="158.26" style="fill:#e0e0e0"></rect><rect x="345.23" y="47.14" width="95.61" height="158.26" style="fill:#ebebeb"></rect><rect x="349.3" y="50.35" width="87.47" height="151.84" style="fill:#fff"></rect><rect x="365.95" y="70.08" width="53.78" height="112.38" style="fill:#ebebeb"></rect><path d="M366,142.7c-.12-10.5,9.32-20.75,19.71-22.22,5-.69,10.23.29,14.86-1.61,8.27-3.39,10.9-14.37,19.22-17.63l.38,81.22H366Z" style="fill:#e0e0e0"></path><path d="M438.49,249.9s-7.92-.57-7.19,17.2,2.54,27.22,2.54,27.22-.23,3.94-3.28,3.17-8.79-4.61-11.62-1.74-1.9,7.53,2,12.9,12,17.44,12.74,18.54,1,3.09-1.16,2.89-16.76-5.14-18.69,1.93,11.39,20.24,12.82,21.7,1.5,2.4.92,3.29-5.33-1.24-9.54-2.48-9.3-1.93-10.08,2.24,5.1,16.37,27.07,29.2l10.57,5.28,10-6.38c20.58-15,25.19-27.69,24-31.76s-6.19-2.87-10.26-1.22-8.57,4.24-9.24,3.41-.68-1.75.59-3.36,13.21-16,10.58-22.87-16.65-.46-18.79-.05-2-1.63-1.44-2.77,7.48-14,10.82-19.72,3.93-10.37.7-13-8.43,1.82-11.39,2.89-3.58-2.82-3.58-2.82.86-9.59-.19-27.34-9.07-16.32-9.07-16.32" style="fill:#ebebeb"></path><path d="M439.12,265.81s0,.13,0,.37,0,.63.09,1.09c.06,1,.16,2.39.28,4.2.24,3.64.55,8.92.91,15.44.73,13,1.58,31,2.44,50.95s1.68,37.93,2.33,51c.33,6.51.6,11.78.78,15.44.09,1.81.16,3.22.21,4.2,0,.47,0,.83.05,1.09v.38s0-.13-.05-.38,0-.62-.08-1.09c-.07-1-.16-2.38-.28-4.19-.25-3.64-.56-8.92-.92-15.44-.72-13-1.57-31-2.44-51s-1.67-37.92-2.32-51c-.33-6.51-.6-11.78-.79-15.44-.09-1.81-.16-3.22-.21-4.2,0-.47,0-.83,0-1.09A3.64,3.64,0,0,1,439.12,265.81Z" style="fill:#e0e0e0"></path><path d="M426.75,301.43a3.81,3.81,0,0,1,.66.55c.4.37,1,.92,1.67,1.61,1.4,1.38,3.27,3.34,5.3,5.54l5.17,5.66,1.58,1.7a3.81,3.81,0,0,1,.55.66,3.55,3.55,0,0,1-.66-.54c-.41-.37-1-.93-1.67-1.62-1.39-1.4-3.24-3.38-5.26-5.58l-5.21-5.62-1.58-1.7A3.41,3.41,0,0,1,426.75,301.43Z" style="fill:#e0e0e0"></path><path d="M442.73,316.8c-.08-.08,3.78-4.13,8.63-9s8.84-8.84,8.92-8.76-3.79,4.13-8.63,9S442.81,316.88,442.73,316.8Z" style="fill:#e0e0e0"></path><path d="M442.68,347.43a3.49,3.49,0,0,1,.74-.47l2.07-1.16c1.74-1,4.14-2.34,6.74-3.94s4.91-3.11,6.58-4.23l2-1.31a3.85,3.85,0,0,1,.75-.45,3.36,3.36,0,0,1-.66.57c-.44.35-1.09.84-1.9,1.43-1.62,1.17-3.91,2.74-6.52,4.33s-5.05,2.93-6.83,3.85c-.89.46-1.62.82-2.13,1.05A4.6,4.6,0,0,1,442.68,347.43Z" style="fill:#e0e0e0"></path><path d="M425.17,336.71a2.69,2.69,0,0,1,.73.34c.46.25,1.12.61,1.92,1.07,1.61.91,3.82,2.2,6.24,3.64s4.62,2.77,6.19,3.75l1.85,1.17a3.82,3.82,0,0,1,.65.48,2.85,2.85,0,0,1-.73-.34c-.46-.24-1.11-.61-1.92-1.07-1.61-.91-3.82-2.2-6.24-3.64s-4.61-2.77-6.19-3.75l-1.85-1.17A3.82,3.82,0,0,1,425.17,336.71Z" style="fill:#e0e0e0"></path><path d="M421.7,363.74a6.15,6.15,0,0,1,.93.45l2.46,1.36c2.07,1.16,4.91,2.79,8,4.61s5.95,3.49,8,4.71l2.39,1.47a5,5,0,0,1,.85.58,4.35,4.35,0,0,1-.93-.45L441,375.12c-2.06-1.16-4.91-2.79-8-4.61S427,367,425,365.8l-2.4-1.47A5.14,5.14,0,0,1,421.7,363.74Z" style="fill:#e0e0e0"></path><path d="M443.9,376.46a4.94,4.94,0,0,1,.92-.62l2.57-1.56c2.17-1.32,5.16-3.16,8.4-5.28s6.14-4.09,8.22-5.55l2.47-1.71a5.37,5.37,0,0,1,.93-.59,6.11,6.11,0,0,1-.84.72c-.55.44-1.37,1.06-2.39,1.82-2.05,1.51-4.92,3.54-8.17,5.65s-6.27,3.92-8.48,5.18c-1.1.63-2,1.13-2.63,1.46A6.69,6.69,0,0,1,443.9,376.46Z" style="fill:#e0e0e0"></path><polygon points="459.79 394.7 430.55 394.7 440.09 466.94 450.24 466.94 459.79 394.7" style="fill:#e0e0e0"></polygon><path d="M432.06,403.58a.78.78,0,0,0,.16.25,1.73,1.73,0,0,0,.7.51A3.53,3.53,0,0,0,436,404c1.18-.65,2.21-1.93,3.79-2.5a8.29,8.29,0,0,1,5.38.11,22.85,22.85,0,0,1,5,2.43,34.82,34.82,0,0,0,4.07,2.18,11.47,11.47,0,0,0,3,.87,6.34,6.34,0,0,0,.85.06c.19,0,.3,0,.3,0a14.81,14.81,0,0,1-4-1.21,39.81,39.81,0,0,1-4-2.25,22.16,22.16,0,0,0-5.09-2.51,8.62,8.62,0,0,0-5.67-.06,7.68,7.68,0,0,0-2.14,1.32,16.67,16.67,0,0,1-1.67,1.3,3.47,3.47,0,0,1-2.85.5A3.17,3.17,0,0,1,432.06,403.58Z" style="fill:#f5f5f5"></path><path d="M433.13,416.88s.23-.3.69-.77a6.4,6.4,0,0,1,2.33-1.48,10.26,10.26,0,0,1,4.07-.62,43.16,43.16,0,0,1,5.09.7,17.46,17.46,0,0,0,5.21.21,14,14,0,0,0,4.1-1.17,13.42,13.42,0,0,0,2.46-1.46,3.24,3.24,0,0,0,.78-.71,23.19,23.19,0,0,1-3.38,1.86,14.79,14.79,0,0,1-4,1.05,18.19,18.19,0,0,1-5.09-.25,38.33,38.33,0,0,0-5.15-.67,10.42,10.42,0,0,0-4.2.74,6.17,6.17,0,0,0-2.35,1.67,4.36,4.36,0,0,0-.44.65C433.15,416.79,433.12,416.87,433.13,416.88Z" style="fill:#f5f5f5"></path><path d="M456.47,424a2.22,2.22,0,0,0-.8-.42,8.41,8.41,0,0,0-2.43-.52,14.86,14.86,0,0,0-3.66.21c-1.36.22-2.82.59-4.36.92a18.48,18.48,0,0,1-4.35.49,9.51,9.51,0,0,1-3.46-.75,7.79,7.79,0,0,1-2.62-1.95,2.23,2.23,0,0,0,.49.77,6.26,6.26,0,0,0,2,1.49,9.19,9.19,0,0,0,3.58.88,17.69,17.69,0,0,0,4.47-.46c1.55-.33,3-.72,4.33-1a17.75,17.75,0,0,1,3.57-.31A12.74,12.74,0,0,1,456.47,424Z" style="fill:#f5f5f5"></path><path d="M435.71,434a4.79,4.79,0,0,1,2.84-.28,13.33,13.33,0,0,1,3,1.11,11.36,11.36,0,0,0,3.86,1.06,11.58,11.58,0,0,0,7-1.62,9.91,9.91,0,0,0,1.74-1.34,2.82,2.82,0,0,0,.52-.62A27.42,27.42,0,0,1,452.2,434a12,12,0,0,1-6.78,1.43c-2.77-.16-4.89-1.81-6.81-2a4.33,4.33,0,0,0-2.21.19A1.6,1.6,0,0,0,435.71,434Z" style="fill:#f5f5f5"></path><path d="M437.34,447.89a5.7,5.7,0,0,0,2.44-.48c1.47-.5,3.29-1.62,5.41-2.47a9.12,9.12,0,0,1,3.11-.65,5.8,5.8,0,0,1,2.5.57,5.71,5.71,0,0,1,1.81,1.56,1.31,1.31,0,0,0-.28-.61,4,4,0,0,0-1.37-1.24,5.66,5.66,0,0,0-2.65-.72,8.79,8.79,0,0,0-3.29.65c-2.2.88-4,2-5.36,2.59S437.33,447.81,437.34,447.89Z" style="fill:#f5f5f5"></path><path d="M438.78,454.34a6.71,6.71,0,0,0,1.85.6,34.17,34.17,0,0,0,9.32.92,7,7,0,0,0,1.93-.23c0-.15-3,0-6.58-.38S438.81,454.2,438.78,454.34Z" style="fill:#f5f5f5"></path><rect x="37.95" y="64.46" width="95.57" height="138.52" style="fill:#e0e0e0"></rect><rect x="33.16" y="64.46" width="95.57" height="138.52" style="fill:#f5f5f5"></rect><rect x="45.03" y="79.46" width="71.82" height="108.51" style="fill:#fff"></rect><path d="M116.85,188s0-.19,0-.53,0-.87,0-1.54c0-1.37,0-3.36,0-6,0-5.2,0-12.77-.06-22.35,0-19.13-.07-46.23-.12-78.14l.24.24L45,79.72h0l.26-.26c0,40.94,0,78.68,0,108.52l-.21-.21,52.28.11,14.44.05,3.79,0,1.31,0-1.27,0-3.75,0-14.39,0L45,188.18h-.21V188c0-29.84,0-67.58,0-108.52V79.2H45l71.81,0h.24v.24c0,32-.09,59.12-.12,78.3,0,9.55,0,17.11-.06,22.3,0,2.57,0,4.55,0,5.9,0,.66,0,1.16,0,1.51S116.85,188,116.85,188Z" style="fill:#e0e0e0"></path><path d="M129,64.46a16,16,0,0,1-1.7,2.47c-1.11,1.49-2.69,3.51-4.48,5.69s-3.48,4.12-4.73,5.49a16,16,0,0,1-2.1,2.15,17.38,17.38,0,0,1,1.82-2.39l4.6-5.58c1.75-2.11,3.32-4,4.6-5.58A17.65,17.65,0,0,1,129,64.46Z" style="fill:#e0e0e0"></path><path d="M117.22,187.63a88.74,88.74,0,0,0,12.52,15.66" style="fill:#fff"></path><path d="M129.74,203.29a14.4,14.4,0,0,1-2.18-2,70.87,70.87,0,0,1-8.89-11.12,13.73,13.73,0,0,1-1.45-2.56A19.8,19.8,0,0,1,119,190c1,1.48,2.53,3.5,4.26,5.66s3.38,4,4.59,5.4A19.51,19.51,0,0,1,129.74,203.29Z" style="fill:#e0e0e0"></path><path d="M33.14,202.87l12.52-15.45" style="fill:#fff"></path><path d="M45.66,187.42a93.18,93.18,0,0,1-6,7.89,92.11,92.11,0,0,1-6.47,7.56A96,96,0,0,1,39.2,195,98,98,0,0,1,45.66,187.42Z" style="fill:#e0e0e0"></path><path d="M33.16,64.46a86.47,86.47,0,0,1,6.07,7.26,82.74,82.74,0,0,1,5.67,7.59A85.73,85.73,0,0,1,38.83,72,85.84,85.84,0,0,1,33.16,64.46Z" style="fill:#e0e0e0"></path><rect x="70.43" y="101.49" width="24.05" height="68.28" style="fill:#e0e0e0"></rect><rect x="178.18" y="41.29" width="75.11" height="78.3" style="fill:#e0e0e0"></rect><rect x="173.09" y="41.29" width="75.11" height="78.3" style="fill:#fafafa"></rect><path d="M248.23,119.62H173.07V41.27h75.16Zm-75.11-.05h75.06V41.32H173.12Z" style="fill:#e0e0e0"></path><rect x="183.19" y="51.82" width="54.92" height="57.25" style="fill:#fff"></rect><path d="M183.19,109.45a9.28,9.28,0,0,1-1.35,1.57c-.88.93-2.11,2.18-3.5,3.54s-2.65,2.58-3.58,3.44a8.57,8.57,0,0,1-1.59,1.32,8.6,8.6,0,0,1,1.35-1.57c.87-.92,2.11-2.18,3.5-3.54s2.65-2.58,3.59-3.45A8.76,8.76,0,0,1,183.19,109.45Z" style="fill:#e0e0e0"></path><path d="M238.11,109.31a9.53,9.53,0,0,1,1.58,1.35c.92.88,2.17,2.11,3.54,3.49s2.57,2.66,3.43,3.59a8.57,8.57,0,0,1,1.32,1.59,8.6,8.6,0,0,1-1.57-1.35c-.92-.88-2.18-2.11-3.54-3.5s-2.58-2.65-3.44-3.59A8.61,8.61,0,0,1,238.11,109.31Z" style="fill:#e0e0e0"></path><path d="M238,52a9.11,9.11,0,0,1,1.36-1.57c.87-.93,2.1-2.18,3.49-3.54s2.65-2.58,3.58-3.44A8.57,8.57,0,0,1,248,42.1a8.6,8.6,0,0,1-1.35,1.57c-.87.93-2.11,2.18-3.5,3.55s-2.65,2.58-3.59,3.44A8.76,8.76,0,0,1,238,52Z" style="fill:#e0e0e0"></path><path d="M183,52.11a8.43,8.43,0,0,1-1.58-1.35c-.92-.88-2.17-2.11-3.53-3.49s-2.58-2.65-3.44-3.59a8.57,8.57,0,0,1-1.32-1.59,8.6,8.6,0,0,1,1.57,1.35c.92.88,2.18,2.11,3.54,3.5s2.58,2.66,3.45,3.59A8.76,8.76,0,0,1,183,52.11Z" style="fill:#e0e0e0"></path><path d="M238,109.07s0-.1,0-.28,0-.46,0-.8q0-1.08,0-3.09c0-2.71,0-6.66,0-11.67,0-10-.07-24.31-.11-41.41L238,52l-54.76,0h0l.24-.24c0,21,0,40.67,0,57.25l-.21-.21,39.66.11L234,109l2.94,0,.76,0H237l-2.91,0-11.09,0-39.79.11H183v-.21c0-16.58,0-36.24,0-57.25v-.24h.25l54.76,0h.21v.21c0,17.16-.08,31.49-.11,41.55,0,5,0,8.92-.05,11.62,0,1.32,0,2.34,0,3.05,0,.33,0,.58,0,.77A2.39,2.39,0,0,1,238,109.07Z" style="fill:#e0e0e0"></path><rect x="201.49" y="71.28" width="18.33" height="18.33" style="fill:#ebebeb"></rect><path d="M138.94,357.9l1.88,34.53a2.33,2.33,0,0,0,2.31,2.21l62.13.45a2.33,2.33,0,0,0,2.35-2.31l.2-26.88a2.34,2.34,0,0,0-2.33-2.35l-38.22,0a2.31,2.31,0,0,1-1.64-.69l-6.6-6.59a2.36,2.36,0,0,0-1.63-.68l-16.11-.12A2.33,2.33,0,0,0,138.94,357.9Z" style="fill:#ebebeb"></path><rect x="139.81" y="359.24" width="67.89" height="40.57" transform="translate(2.79 -1.26) rotate(0.42)" style="fill:#f5f5f5"></rect><path d="M134.54,362.59l4.87,42.35a1.49,1.49,0,0,0,1.48,1.32l66.16.49a1.51,1.51,0,0,0,1.51-1.37l3.64-42.28a1.51,1.51,0,0,0-1.49-1.63L136,360.92A1.5,1.5,0,0,0,134.54,362.59Z" style="fill:#ebebeb"></path><path d="M246.89,377.35,248.77,412a2.33,2.33,0,0,0,2.31,2.21l62.27.46a2.34,2.34,0,0,0,2.36-2.32l.2-26.94a2.34,2.34,0,0,0-2.34-2.35l-38.3,0a2.32,2.32,0,0,1-1.65-.68l-6.6-6.61a2.36,2.36,0,0,0-1.64-.68l-16.14-.12A2.33,2.33,0,0,0,246.89,377.35Z" style="fill:#ebebeb"></path><rect x="247.76" y="378.7" width="68.04" height="40.66" transform="translate(2.93 -2.05) rotate(0.42)" style="fill:#f5f5f5"></rect><path d="M242.47,382.05l4.89,42.44a1.5,1.5,0,0,0,1.48,1.33l66.31.49a1.52,1.52,0,0,0,1.51-1.38l3.65-42.37a1.51,1.51,0,0,0-1.49-1.63L244,380.38A1.51,1.51,0,0,0,242.47,382.05Z" style="fill:#ebebeb"></path></g><g id="freepik--Folder--inject-12"><path d="M176.19,275.31A10.23,10.23,0,0,1,166,265.08V176.14a8.49,8.49,0,0,1,8.75-8.19h8.36a8.81,8.81,0,0,0,8-4.76l1.79-3.65a8.81,8.81,0,0,1,7.95-4.76h39.69a8.89,8.89,0,0,1,7.54,4l1.95,3.09a8.88,8.88,0,0,0,7.53,4h50.6a8.48,8.48,0,0,1,8.75,8.2v91a10.23,10.23,0,0,1-10.23,10.23Z" style="fill:#407BFF"></path><g style="opacity:0.30000000000000004"><path d="M176.19,275.31A10.23,10.23,0,0,1,166,265.08V176.14a8.49,8.49,0,0,1,8.75-8.19h8.36a8.81,8.81,0,0,0,8-4.76l1.79-3.65a8.81,8.81,0,0,1,7.95-4.76h39.69a8.89,8.89,0,0,1,7.54,4l1.95,3.09a8.88,8.88,0,0,0,7.53,4h50.6a8.48,8.48,0,0,1,8.75,8.2v91a10.23,10.23,0,0,1-10.23,10.23Z"></path></g><path d="M252.48,165.92l-32.2-.07-2.87-5.38a11.11,11.11,0,0,0-9.84-5.69H176.1c-5.6,0-10.14,4.25-10.14,9.5V264.52c0,6,5.16,10.79,11.52,10.79H305.3c6.37,0,11.52-4.83,11.52-10.79V173.29a7.37,7.37,0,0,0-7.37-7.37Z" style="fill:#407BFF"></path><path d="M268.71,241.88H254.46a1,1,0,0,1,0-2h14.25a14.17,14.17,0,0,0,.78-28.32,1,1,0,0,1-.92-.75A22.64,22.64,0,0,0,229,202.31a1,1,0,0,1-.91.37,17,17,0,0,0-2.16-.14,18.67,18.67,0,0,0,0,37.33h11.55a1,1,0,1,1,0,2H225.88a20.68,20.68,0,1,1,0-41.36,17.12,17.12,0,0,1,1.84.1,24.66,24.66,0,0,1,42.61,9,16.18,16.18,0,0,1-1.62,32.29Z" style="fill:#fff"></path><path d="M245.67,251a1,1,0,0,1-1-1V224a1,1,0,1,1,2,0v26A1,1,0,0,1,245.67,251Z" style="fill:#fff"></path><path d="M253.27,234.35a1,1,0,0,1-.81-.4l-6.62-8.88a.25.25,0,0,0-.2-.09.26.26,0,0,0-.19.09l-7,8.63a1,1,0,1,1-1.57-1.27l7-8.63a2.34,2.34,0,0,1,1.8-.84,2.25,2.25,0,0,1,1.76.89l6.64,8.89a1,1,0,0,1-.21,1.41A1,1,0,0,1,253.27,234.35Z" style="fill:#fff"></path></g></svg>