<svg xmlns="http://www.w3.org/2000/svg" viewBox="0 0 500 500"><g id="freepik--background-complete--inject-91"><rect x="364.29" y="106.18" width="73.88" height="73.88" style="fill:#ebebeb"></rect><path d="M402.45,118a2.49,2.49,0,0,1,2.51,2.51v1.29a21.09,21.09,0,0,1,9.06,3.21,3.12,3.12,0,0,1,1.75,2.8,3.22,3.22,0,0,1-3.27,3.22,3.38,3.38,0,0,1-1.75-.53,21.24,21.24,0,0,0-6-2.57v11.21c8.88,2.22,12.68,5.79,12.68,12,0,6.42-5,10.69-12.45,11.39v3.5a2.49,2.49,0,0,1-2.51,2.51,2.54,2.54,0,0,1-2.57-2.51v-3.62a25.19,25.19,0,0,1-12-4.56,3.21,3.21,0,0,1-1.58-2.8,3.22,3.22,0,0,1,5.14-2.57,20.59,20.59,0,0,0,8.65,3.91V145c-8.53-2.22-12.5-5.44-12.5-12,0-6.25,5-10.57,12.26-11.15v-1.23A2.54,2.54,0,0,1,402.45,118ZM400.12,138V127.62c-3.74.35-5.61,2.34-5.61,4.91S395.62,136.5,400.12,138Zm4.61,8.12v10.63c3.74-.41,5.78-2.28,5.78-5.08C410.51,149.06,409.23,147.48,404.73,146.08Z" style="fill:#fff"></path><rect x="65.89" y="88.18" width="73.88" height="73.88" style="fill:#ebebeb"></rect><path d="M119.22,139.82H84.77l-8.45-30.61,48.45,0,1.75-7.06H132v2h-3.92Zm-32.93-2h31.37l6.61-26.65-45.33,0Z" style="fill:#fff"></path><polygon points="89.61 145.88 87.77 145.1 90.85 137.78 114.3 137.78 116.84 145.16 114.95 145.81 112.88 139.78 92.18 139.78 89.61 145.88" style="fill:#fff"></polygon><rect x="79.81" y="116.17" width="44" height="2" style="fill:#fff"></rect><rect x="81.65" y="123.67" width="39.81" height="2" transform="translate(-0.55 0.45) rotate(-0.25)" style="fill:#fff"></rect><rect x="83.74" y="131.35" width="36.07" height="2" style="fill:#fff"></rect><rect x="101.25" y="110.34" width="2" height="28.47" style="fill:#fff"></rect><rect x="94.62" y="110.3" width="2" height="28.57" transform="translate(-9.65 8.04) rotate(-4.58)" style="fill:#fff"></rect><rect x="87.5" y="110.1" width="2" height="28.95" transform="translate(-21.08 18.06) rotate(-10.42)" style="fill:#fff"></rect><rect x="94.46" y="123.58" width="28.57" height="2" transform="translate(-24.14 223) rotate(-85.41)" style="fill:#fff"></rect><rect x="101.39" y="123.58" width="28.95" height="2" transform="translate(-27.6 216.03) rotate(-79.59)" style="fill:#fff"></rect><path d="M88.69,149.8A4.31,4.31,0,1,1,93,145.49,4.32,4.32,0,0,1,88.69,149.8Zm0-6.62A2.31,2.31,0,1,0,91,145.49,2.32,2.32,0,0,0,88.69,143.18Z" style="fill:#fff"></path><path d="M115.8,149.8a4.31,4.31,0,1,1,4.31-4.31A4.32,4.32,0,0,1,115.8,149.8Zm0-6.62a2.31,2.31,0,1,0,2.31,2.31A2.32,2.32,0,0,0,115.8,143.18Z" style="fill:#fff"></path><path d="M90.91,319.25S102.39,278,111.57,264s26.27-29.38,26.27-29.38S137.44,298.2,90.91,319.25Z" style="fill:#ebebeb"></path><path d="M91.73,318.55a198.52,198.52,0,0,0,10.47-20,139.44,139.44,0,0,1,5.7-21.68.11.11,0,0,1,.21.07c-1.53,6.52-3.3,13-4.91,19.47,4.64-10,9-20.2,14.57-29.68a63,63,0,0,1,5.32-13.2c.06-.12.26-.05.2.08a84.7,84.7,0,0,0-3.58,9.89,97.87,97.87,0,0,1,8.73-12c.2-.24.6,0,.4.27-7.38,9.43-12.48,20.15-17.33,31a165.25,165.25,0,0,0,14.41-18,.06.06,0,1,1,.1.07,148.87,148.87,0,0,1-15.43,20c-3.54,7.95-7,15.94-11.23,23.5,8.42-7.12,14.9-16.33,21.31-25.22a.19.19,0,0,1,.32.22c-6.41,9.75-13,18.94-22.28,26.16a101.43,101.43,0,0,1-6.17,9.63A.49.49,0,0,1,91.73,318.55Z" style="fill:#fff"></path><path d="M87.35,323S108,285,102,248.09s-12.41-50-12.41-50S57.12,255.44,87.35,323Z" style="fill:#ebebeb"></path><path d="M78.87,263.2a180.53,180.53,0,0,0,8,30.7c.06-13.53.32-27.06.68-40.58a104.7,104.7,0,0,1-3.9-25.19c0-.25.37-.24.39,0a143.9,143.9,0,0,0,3.61,21.67q.48-16.74,1.09-33.47a.15.15,0,0,1,.29,0c0,17.43,0,34.86-.11,52.29a140.33,140.33,0,0,0,6-20.71c0-.06.12-.05.12,0-.62,8.14-3.1,16-6.1,23.57-.08,11.14-.2,22.28-.45,33.42,3.5-11.85,7.23-23.32,8.24-35.83a.13.13,0,0,1,.26,0c-.27,13.81-3.83,27.82-8.38,40.8a.88.88,0,0,1-.23.32c-.11,4.08-.22,8.15-.36,12.22a.46.46,0,0,1-.91,0c-.16-8.33-.21-16.66-.2-25-4.64-10.71-7.11-22.65-8.14-34.22C78.68,263.12,78.86,263.1,78.87,263.2Z" style="fill:#fff"></path><path d="M80.29,257.32a72.69,72.69,0,0,1,1.44,10,.1.1,0,0,1-.2,0,72.05,72.05,0,0,1-1.7-10C79.8,257.12,80.24,257.07,80.29,257.32Z" style="fill:#fff"></path><path d="M92.36,229.53c0-.11.19-.07.19,0a25.77,25.77,0,0,1-1,6.93.15.15,0,0,1-.28-.08C91.69,234.12,92,231.82,92.36,229.53Z" style="fill:#fff"></path><path d="M79.82,325.88s.84-39.69-10.55-59.41S39,236.69,39,236.69,46.62,306.64,79.82,325.88Z" style="fill:#ebebeb"></path><path d="M59.07,291.94c4.79,6.89,9.54,13.53,15.41,19.53q-3.42-12.18-7.88-23.94c-6.39-5.59-12.71-11.39-16.63-19a.11.11,0,0,1,.19-.11c4.2,6.78,9.83,12.21,15.76,17.43a307.53,307.53,0,0,0-15.85-34.51.25.25,0,0,1,.44-.25,189.28,189.28,0,0,1,9.93,18.11c-1.06-4.24-1.92-8.58-3-12.79a.09.09,0,0,1,.18-.05c2,5.3,4,11.16,4.68,16.83a203.09,203.09,0,0,1,10,27.15c-.3-5.94-.67-11.87-1.28-17.8,0-.11.17-.14.2,0a96.5,96.5,0,0,1,1.72,20c1.64,5.91,3,11.9,4.13,17.93,0,.16-.21.23-.25.07-.62-2.53-1.29-5-2-7.54,0,0-.09,0-.13-.05C68.62,306.75,62.82,299.77,59,292,59,291.93,59,291.9,59.07,291.94Z" style="fill:#fff"></path><path d="M45.88,259.65c1.27,1.37,2.43,2.81,3.66,4.22a33.16,33.16,0,0,1,3.28,3.83c0,.05,0,.12-.09.09a19.18,19.18,0,0,1-3.79-3.74,32.54,32.54,0,0,1-3.24-4.26C45.63,259.68,45.79,259.55,45.88,259.65Z" style="fill:#fff"></path><path d="M113.64,321l-1.44,18.8-4.32,56.82H70.17l-4.33-56.82L64.41,321h49.23Z" style="fill:#dbdbdb"></path><path d="M113.64,321l-1.44,18.8H65.84L64.41,321h49.23Z" style="fill:#c7c7c7"></path><rect x="61.06" y="311.81" width="55.93" height="14.41" transform="translate(178.04 638.02) rotate(180)" style="fill:#dbdbdb"></rect></g><g id="freepik--Floor--inject-91"><polygon points="25.05 396.76 81.28 396.51 137.52 396.43 250 396.26 362.48 396.43 418.71 396.51 474.95 396.76 418.71 397 362.48 397.09 250 397.26 137.52 397.09 81.28 397 25.05 396.76" style="fill:#263238"></polygon></g><g id="freepik--credit-card--inject-91"><path d="M457.8,223.18l-9.41,79.95a8.16,8.16,0,0,1-9,7.15L312.54,295.36a8.16,8.16,0,0,1-7.14-9.05l9.41-80a7.59,7.59,0,0,1,8.42-6.64l127.92,15A7.59,7.59,0,0,1,457.8,223.18Z" style="fill:#263238"></path><path d="M429.11,289.44a7.5,7.5,0,1,1-6.57-8.32A7.5,7.5,0,0,1,429.11,289.44Z" style="fill:#455a64"></path><path d="M438.27,290.52a7.5,7.5,0,1,1-6.57-8.32A7.5,7.5,0,0,1,438.27,290.52Z" style="fill:#2466FF"></path><rect x="324.91" y="215.48" width="27.03" height="18.68" rx="4.2" transform="translate(28.59 -38.01) rotate(6.71)" style="fill:#2466FF"></rect><path d="M439.34,237.61l-12.14-1.43a5.13,5.13,0,0,1-4.49-5.69h0a5.12,5.12,0,0,1,5.68-4.49l12.15,1.43a5.13,5.13,0,0,1,4.49,5.69h0A5.13,5.13,0,0,1,439.34,237.61Z" style="fill:#455a64"></path><path d="M322.11,249.26l-.78,6.56a.62.62,0,0,1-.69.54.61.61,0,0,1-.54-.69l.64-5.47-.47.2a.54.54,0,0,1-.32.06.6.6,0,0,1-.49-.38.59.59,0,0,1,.3-.81l1.46-.65,0,0s0,0,.06,0h.31l.05,0a.07.07,0,0,1,.06,0h0s0,0,.07,0a.08.08,0,0,0,0,0l0,0,0,.05,0,.05,0,0v0s0,0,0,0a.11.11,0,0,1,0,.06.07.07,0,0,0,0,.05.35.35,0,0,0,0,.06s0,.06,0,.08Z" style="fill:#f8f8f8"></path><path d="M327.77,256.58a.61.61,0,0,1-.68.54l-3.94-.47h0a.6.6,0,0,1-.43-.25.62.62,0,0,1,.13-.87l3.64-2.59a1.4,1.4,0,0,0,.6-1,1.44,1.44,0,0,0-1.27-1.61,1.49,1.49,0,0,0-1,.25l-.38.28a.62.62,0,0,1-.72-1l.38-.27a2.63,2.63,0,0,1,1.88-.48,2.66,2.66,0,0,1,1.87,1.11,2.6,2.6,0,0,1,.48,1.87,2.7,2.7,0,0,1-1.11,1.88l-2.33,1.65,2.37.28A.62.62,0,0,1,327.77,256.58Z" style="fill:#f8f8f8"></path><path d="M334,253.14a2.71,2.71,0,0,1,.58,2,2.78,2.78,0,0,1-4.94,1.4.63.63,0,1,1,1-.78,1.49,1.49,0,0,0,1,.55,1.54,1.54,0,0,0,1.12-.3,1.56,1.56,0,0,0,.57-1,1.52,1.52,0,0,0-.32-1.11,1.56,1.56,0,0,0-1-.57.57.57,0,0,1-.43-.25h0a.64.64,0,0,1,.08-.9l1.27-1-1.8-.21a.63.63,0,0,1,.15-1.26l3.28.39a.62.62,0,0,1,.56.69.72.72,0,0,1-.11.3.86.86,0,0,1-.13.14l-1.57,1.28A2.55,2.55,0,0,1,334,253.14Z" style="fill:#f8f8f8"></path><path d="M342.21,256.8a.63.63,0,0,1-.7.54l-.11,0-.1.85a.61.61,0,1,1-1.22-.15l.09-.84-3.48-.41h0a.59.59,0,0,1-.36-.18.6.6,0,0,1,0-.87l4.72-4.63s0,0,0,0,0,0,0,0a.1.1,0,0,0,.06,0l.05,0a.08.08,0,0,1,.07,0,0,0,0,0,1,.05,0l.07,0h.23a.06.06,0,0,0,.05,0l.07,0,0,0s0,0,.05.05l.05,0h0l0,0a.15.15,0,0,1,0,.06l0,0,0,.06a.08.08,0,0,0,0,.05s0,0,0,.07v0s0,0,0,.06,0,0,0,.06v0l-.53,4.49h.11A.63.63,0,0,1,342.21,256.8Zm-1.57-3.59-2.53,2.48,2.21.26Z" style="fill:#f8f8f8"></path><path d="M354.72,255.58a2.79,2.79,0,0,1,.58,2.06,2.76,2.76,0,0,1-1,1.85,2.71,2.71,0,0,1-2,.58h0a2.68,2.68,0,0,1-1.84-1,.61.61,0,0,1,.1-.89.63.63,0,0,1,.89.11,1.47,1.47,0,0,0,1,.57,1.53,1.53,0,0,0,1.67-1.33,1.52,1.52,0,0,0-1.32-1.68,1.5,1.5,0,0,0-1.12.31.64.64,0,0,1-.89-.1,1.4,1.4,0,0,1-.1-.16s0,0,0,0a.14.14,0,0,0,0-.06.22.22,0,0,0,0-.08s0,0,0,0a1.11,1.11,0,0,1,0-.19l.68-2.84a.65.65,0,0,1,.33-.41l0,0,0,0a.73.73,0,0,1,.3,0l3.28.39a.63.63,0,1,1-.15,1.25l-2.73-.32-.27,1.09a3.22,3.22,0,0,1,.76,0A2.8,2.8,0,0,1,354.72,255.58Z" style="fill:#f8f8f8"></path><path d="M362.51,258.55a2.72,2.72,0,0,1-5.42-.35v0c0-.22,0-.43.05-.64a6.77,6.77,0,0,1,.66-2.24,4,4,0,0,1,1.66-1.73,3.2,3.2,0,0,1,1.73-.33.63.63,0,0,1,.58.67.67.67,0,0,1-.68.58,2.07,2.07,0,0,0-1.08.18,2.28,2.28,0,0,0-.79.7,1.59,1.59,0,0,0-.18.27,2.64,2.64,0,0,1,1.09-.1A2.73,2.73,0,0,1,362.51,258.55Zm-1.24-.14a1.47,1.47,0,1,0-2.92-.34,1.47,1.47,0,0,0,2.92.34Z" style="fill:#f8f8f8"></path><path d="M369.44,255.06l-3.55,6.25a.59.59,0,0,1-.61.3.75.75,0,0,1-.23-.07.64.64,0,0,1-.24-.84l3.07-5.43-2.86-.33a.63.63,0,0,1-.54-.7.62.62,0,0,1,.68-.54l3.82.45.11,0,.22.12,0,0a.07.07,0,0,1,0,0l0,.05,0,0s0,0,0,.05a.25.25,0,0,0,0,.07v.05l0,.06a1.07,1.07,0,0,1,0,.25Z" style="fill:#f8f8f8"></path><path d="M375.57,260.14a2.67,2.67,0,1,1-3.86-2.7,1.81,1.81,0,0,1-.24-1.15,1.85,1.85,0,0,1,3.67.44,1.79,1.79,0,0,1-.5,1A2.69,2.69,0,0,1,375.57,260.14Zm-1.21-.15a1.44,1.44,0,0,0-1.26-1.61,1.45,1.45,0,1,0-.34,2.88A1.45,1.45,0,0,0,374.36,260Zm-1.68-3.55a.65.65,0,0,0,.56.71.64.64,0,0,0,.69-.57.63.63,0,0,0-1.25-.14Z" style="fill:#f8f8f8"></path><path d="M384.34,258.69a2.72,2.72,0,0,1,5.42.35s0,0,0,0c0,.21,0,.42-.05.63a6.27,6.27,0,0,1-.66,2.24,3.88,3.88,0,0,1-1.65,1.73,3.22,3.22,0,0,1-1.73.33.63.63,0,0,1-.58-.67.65.65,0,0,1,.68-.57,2.07,2.07,0,0,0,1.08-.19,2.37,2.37,0,0,0,.79-.7,1.81,1.81,0,0,0,.18-.27,2.65,2.65,0,0,1-1.09.1A2.73,2.73,0,0,1,384.34,258.69Zm1.23.14a1.49,1.49,0,0,0,1.3,1.64,1.47,1.47,0,1,0-1.3-1.64Z" style="fill:#f8f8f8"></path><path d="M391.32,260.73a4.85,4.85,0,0,1,1.07-2.57,2.51,2.51,0,0,1,2.22-1,2.54,2.54,0,0,1,1.91,1.47,4.85,4.85,0,0,1,.43,2.75,4.78,4.78,0,0,1-1.06,2.57,2.35,2.35,0,0,1-4.12-.49A4.83,4.83,0,0,1,391.32,260.73Zm4.4.51a3.8,3.8,0,0,0-.3-2,1.32,1.32,0,0,0-1-.8,1.34,1.34,0,0,0-1.13.56,3.64,3.64,0,0,0-.77,1.91,3.57,3.57,0,0,0,.3,2,1.37,1.37,0,0,0,1,.82,1.32,1.32,0,0,0,1.11-.57A3.64,3.64,0,0,0,395.72,261.24Z" style="fill:#f8f8f8"></path><path d="M401.86,258.64l-.77,6.56a.62.62,0,0,1-.7.54.61.61,0,0,1-.54-.68l.65-5.48-.48.21a.62.62,0,0,1-.32,0,.62.62,0,0,1-.19-1.18L401,258l0,0s0,0,.06,0h.36l.06,0,.05,0s0,0,.06,0l0,0,0,0a.1.1,0,0,1,0,.05l0,0,0,.05v0s0,0,0,0,0,0,0,.06,0,0,0,.06,0,0,0,.06,0,.05,0,.08Z" style="fill:#f8f8f8"></path><path d="M407.53,266a.61.61,0,0,1-.69.54L402.9,266h0a.57.57,0,0,1-.43-.25.62.62,0,0,1,.13-.86l3.65-2.6a1.43,1.43,0,0,0,.59-1,1.46,1.46,0,0,0-.25-1,1.4,1.4,0,0,0-1-.59,1.49,1.49,0,0,0-1,.25l-.38.27a.6.6,0,0,1-.86-.15.61.61,0,0,1,.15-.86l.38-.27a2.65,2.65,0,0,1,1.87-.48,2.74,2.74,0,0,1,1.88,1.11,2.68,2.68,0,0,1,.48,1.88,2.71,2.71,0,0,1-1.12,1.87L404.62,265l2.37.28A.62.62,0,0,1,407.53,266Z" style="fill:#f8f8f8"></path><path d="M420.43,263.31a2.77,2.77,0,0,1-.46,3.9,2.78,2.78,0,0,1-3.91-.46.64.64,0,0,1,.11-.89.63.63,0,0,1,.89.11,1.45,1.45,0,0,0,1,.55,1.52,1.52,0,0,0,1.12-.3,1.48,1.48,0,0,0,.57-1,1.43,1.43,0,0,0-.32-1.11,1.53,1.53,0,0,0-1-.57.59.59,0,0,1-.44-.25s0,0,0,0a.63.63,0,0,1,.09-.89l1.27-1-1.8-.21a.63.63,0,0,1-.55-.71.62.62,0,0,1,.69-.55l3.28.39a.63.63,0,0,1,.57.69.73.73,0,0,1-.12.3.86.86,0,0,1-.13.14l-1.57,1.28A2.74,2.74,0,0,1,420.43,263.31Z" style="fill:#f8f8f8"></path><path d="M428.63,267a.62.62,0,0,1-.7.53h-.11l-.1.85a.61.61,0,1,1-1.22-.15l.1-.84-3.48-.41h0a.59.59,0,0,1-.36-.18.61.61,0,0,1,0-.87l4.72-4.63,0,0,0,0,.06,0,.05,0s0,0,.07,0,0,0,.05,0l.07,0H428a.07.07,0,0,0,.06,0l.06,0h0l.05.06.05,0h0s0,0,0,0l0,0,0,.05,0,.06a.11.11,0,0,0,0,.05.31.31,0,0,1,0,.07s0,0,0,.05a.06.06,0,0,1,0,.06s0,0,0,.06v0l-.53,4.5h.11A.63.63,0,0,1,428.63,267Zm-1.56-3.59-2.54,2.48,2.21.26Z" style="fill:#f8f8f8"></path><path d="M434.47,265a2.73,2.73,0,0,1,.59,2,2.84,2.84,0,0,1-1,1.85,2.74,2.74,0,0,1-2,.59h0a2.7,2.7,0,0,1-1.84-1,.61.61,0,0,1,.1-.88.65.65,0,0,1,.9.1,1.5,1.5,0,0,0,2.12.25,1.58,1.58,0,0,0,.57-1,1.52,1.52,0,0,0-2.44-1.37.66.66,0,0,1-.9-.11,1.4,1.4,0,0,0-.1-.16s0,0,0,0a.06.06,0,0,0,0-.06s0-.06,0-.08,0,0,0,0a.39.39,0,0,1,0-.19L431,262a.74.74,0,0,1,.33-.42h0l0,0a.56.56,0,0,1,.29,0l3.28.39a.63.63,0,0,1,.56.71.64.64,0,0,1-.7.55l-2.74-.32-.26,1.08a2.79,2.79,0,0,1,2.6,1Z" style="fill:#f8f8f8"></path><path d="M442.26,267.94a2.71,2.71,0,0,1-5.41-.36v0c0-.21,0-.43.05-.64a6.49,6.49,0,0,1,.66-2.23,3.85,3.85,0,0,1,1.66-1.73,3.18,3.18,0,0,1,1.73-.33.62.62,0,0,1,.57.66.65.65,0,0,1-.67.58,2,2,0,0,0-1.09.19,2.23,2.23,0,0,0-.79.69,2.68,2.68,0,0,0-.18.28,2.53,2.53,0,0,1,1.1-.1A2.7,2.7,0,0,1,442.26,267.94Zm-1.23-.15a1.47,1.47,0,1,0-2.93-.34,1.47,1.47,0,0,0,2.93.34Z" style="fill:#f8f8f8"></path><rect x="319.1" y="273.76" width="68.37" height="3.36" transform="translate(34.61 -39.4) rotate(6.71)" style="fill:#f8f8f8"></rect><rect x="318.3" y="280.01" width="48.4" height="3.36" transform="translate(35.26 -38.09) rotate(6.71)" style="fill:#f8f8f8"></rect><rect x="384.46" y="222.85" width="34.1" height="3.36" transform="translate(28.99 -45.38) rotate(6.71)" style="fill:#f8f8f8"></rect></g><g id="freepik--Device--inject-91"><path d="M341.81,98V393.25A15.62,15.62,0,0,1,326.35,409H173.64a15.61,15.61,0,0,1-15.45-15.74V98a15.6,15.6,0,0,1,15.45-15.74H326.35A15.6,15.6,0,0,1,341.81,98Z" style="fill:#455a64"></path><path d="M332.15,112.85V383.53c0,8.27-6.19,15-13.83,15H181.69c-7.65,0-13.85-6.7-13.85-15V112.85c0-16.86,6.2-20.58,13.85-20.58h27.37c1.59,0,2.89,1.8,2.89,4v1c0,5.25,2.87,5.27,6.4,5.27h63.29c3.56,0,6.41,0,6.41-5.27v-1c0-2.23,1.28-4,2.89-4h27.38C326,92.27,332.15,97.41,332.15,112.85Z" style="fill:#fff"></path><path d="M258.63,96H241.37a1.07,1.07,0,0,1-1.07-1.07h0a1.07,1.07,0,0,1,1.07-1.07h17.26a1.07,1.07,0,0,1,1.07,1.07h0A1.07,1.07,0,0,1,258.63,96Z" style="fill:#fff"></path><rect x="186.66" y="142.9" width="126.67" height="148.74" style="fill:#ebebeb"></rect><path d="M312.44,309.73c-1.56,2.86-5.3,5.38-5.3,5.38s-3.74-2.52-5.29-5.38c-1.76-3.23-.79-6.54,1.74-6.54,2.82,0,3.55,3.52,3.55,3.52s.74-3.52,3.55-3.52C313.22,303.19,314.2,306.5,312.44,309.73Z" style="fill:#2466FF"></path><rect x="186.66" y="115.59" width="14.49" height="2.38" style="fill:#dbdbdb"></rect><rect x="186.66" y="120.36" width="14.49" height="2.38" style="fill:#dbdbdb"></rect><rect x="186.66" y="125.12" width="14.49" height="2.38" style="fill:#dbdbdb"></rect><rect x="271.83" y="119.65" width="2" height="8.07" transform="translate(-19.33 189.84) rotate(-37.15)" style="fill:#dbdbdb"></rect><path d="M272.93,117.14a4.34,4.34,0,1,1-6.09-.8A4.35,4.35,0,0,1,272.93,117.14Z" style="fill:#dbdbdb"></path><path d="M271.55,118.2a2.6,2.6,0,1,1-3.64-.48A2.6,2.6,0,0,1,271.55,118.2Z" style="fill:#fff"></path><path d="M294.87,122.13c-1.56,2.86-5.3,5.38-5.3,5.38s-3.74-2.52-5.29-5.38c-1.76-3.23-.79-6.54,1.74-6.54,2.82,0,3.55,3.52,3.55,3.52s.74-3.52,3.55-3.52C295.65,115.59,296.63,118.9,294.87,122.13Z" style="fill:#2466FF"></path><polygon points="304.15 118.45 312.33 118.45 313.33 127.51 303.15 127.51 304.15 118.45" style="fill:#dbdbdb"></polygon><path d="M305.69,119.53c0-.09-.28-2.28.76-3.45a2.17,2.17,0,0,1,1.71-.74,2.28,2.28,0,0,1,1.73.73,5.26,5.26,0,0,1,.94,3.44l-1-.07a4.25,4.25,0,0,0-.67-2.69,1.38,1.38,0,0,0-2,0,4,4,0,0,0-.52,2.67Z" style="fill:#dbdbdb"></path><rect x="186.66" y="305.55" width="79.63" height="2.25" style="fill:#dbdbdb"></rect><rect x="186.66" y="309.76" width="68.48" height="2.25" style="fill:#dbdbdb"></rect><polygon points="178.66 220.28 175.46 217.28 178.66 214.27 179.18 214.82 176.55 217.28 179.18 219.73 178.66 220.28" style="fill:#c7c7c7"></polygon><path d="M178,222.63a5.36,5.36,0,1,1,5.35-5.35A5.36,5.36,0,0,1,178,222.63Zm0-9.71a4.36,4.36,0,1,0,4.35,4.36A4.36,4.36,0,0,0,178,212.92Z" style="fill:#c7c7c7"></path><polygon points="321.34 220.28 320.82 219.73 323.44 217.28 320.82 214.82 321.34 214.27 324.54 217.28 321.34 220.28" style="fill:#c7c7c7"></polygon><path d="M322,222.63a5.36,5.36,0,1,1,5.36-5.35A5.36,5.36,0,0,1,322,222.63Zm0-9.71a4.36,4.36,0,1,0,4.36,4.36A4.36,4.36,0,0,0,322,212.92Z" style="fill:#c7c7c7"></path><path d="M191.88,321.37a.51.51,0,0,1,.51.52v.26a4.54,4.54,0,0,1,1.86.66.65.65,0,0,1,.36.58.66.66,0,0,1-.67.66.72.72,0,0,1-.36-.11,4.54,4.54,0,0,0-1.24-.53v2.31c1.83.45,2.61,1.18,2.61,2.47s-1,2.19-2.56,2.34v.72a.51.51,0,0,1-.51.51.52.52,0,0,1-.53-.51v-.75a5.17,5.17,0,0,1-2.46-.93.68.68,0,0,1-.32-.58.65.65,0,0,1,.66-.66.68.68,0,0,1,.39.13,4.29,4.29,0,0,0,1.78.81V326.9c-1.75-.45-2.57-1.11-2.57-2.47a2.41,2.41,0,0,1,2.52-2.29v-.25A.52.52,0,0,1,191.88,321.37Zm-.48,4.09v-2.12c-.77.07-1.15.48-1.15,1S190.47,325.16,191.4,325.46Zm.94,1.67v2.18c.77-.08,1.19-.46,1.19-1S193.27,327.42,192.34,327.13Z" style="fill:#263238"></path><path d="M201.62,329.87a.65.65,0,0,1-.66.66h-4.27a.66.66,0,0,1-.49-.22.67.67,0,0,1,0-.94l3.55-3.21a1.5,1.5,0,0,0,.51-1.15,1.55,1.55,0,0,0-2.59-1.15l-.37.33a.66.66,0,1,1-.89-1l.37-.34a2.85,2.85,0,0,1,1.93-.74,2.89,2.89,0,0,1,2.14.95,2.87,2.87,0,0,1-.21,4.06l-2.27,2.05H201A.66.66,0,0,1,201.62,329.87Z" style="fill:#263238"></path><path d="M203.28,326.33a5.18,5.18,0,0,1,.81-2.87,2.53,2.53,0,0,1,4.45,0,5.47,5.47,0,0,1,0,5.73,2.52,2.52,0,0,1-4.45,0A5.17,5.17,0,0,1,203.28,326.33Zm4.74,0a4,4,0,0,0-.58-2.14,1.4,1.4,0,0,0-1.12-.73,1.46,1.46,0,0,0-1.14.73,4,4,0,0,0-.57,2.14,4,4,0,0,0,.57,2.12,1.45,1.45,0,0,0,1.14.74,1.39,1.39,0,0,0,1.12-.74A3.88,3.88,0,0,0,208,326.33Z" style="fill:#263238"></path><path d="M212.65,328.82a.9.9,0,1,1,0,1.79.9.9,0,0,1,0-1.79Z" style="fill:#263238"></path><path d="M214.08,326.33a5.18,5.18,0,0,1,.81-2.87,2.53,2.53,0,0,1,4.45,0,5.47,5.47,0,0,1,0,5.73,2.52,2.52,0,0,1-4.45,0A5.17,5.17,0,0,1,214.08,326.33Zm4.74,0a4,4,0,0,0-.58-2.14,1.4,1.4,0,0,0-1.12-.73,1.46,1.46,0,0,0-1.14.73,4,4,0,0,0-.57,2.14,4,4,0,0,0,.57,2.12,1.45,1.45,0,0,0,1.14.74,1.39,1.39,0,0,0,1.12-.74A3.88,3.88,0,0,0,218.82,326.33Z" style="fill:#263238"></path><path d="M222.6,326.33a5.18,5.18,0,0,1,.81-2.87,2.53,2.53,0,0,1,4.45,0,5.47,5.47,0,0,1,0,5.73,2.52,2.52,0,0,1-4.45,0A5.17,5.17,0,0,1,222.6,326.33Zm4.74,0a4,4,0,0,0-.58-2.14,1.4,1.4,0,0,0-1.12-.73,1.46,1.46,0,0,0-1.14.73,4,4,0,0,0-.57,2.14,4,4,0,0,0,.57,2.12,1.45,1.45,0,0,0,1.14.74,1.39,1.39,0,0,0,1.12-.74A3.88,3.88,0,0,0,227.34,326.33Z" style="fill:#263238"></path><rect x="197.55" y="340.36" width="102" height="22.39" style="fill:#263238"></rect><path d="M213.57,354.21h-2.92l-.58,1.56a.68.68,0,0,1-.63.42.93.93,0,0,1-.23,0,.68.68,0,0,1-.39-.86l2.65-7.07a.69.69,0,0,1,1.27,0l2.65,7.07a.68.68,0,0,1-.4.86.72.72,0,0,1-.22,0,.64.64,0,0,1-.61-.42Zm-.49-1.32-1-2.58-1,2.58Z" style="fill:#fff"></path><path d="M217,355.53v-7.08a.65.65,0,0,1,.66-.66h1.41a4.2,4.2,0,0,1,0,8.4H217.7A.66.66,0,0,1,217,355.53Zm1.33-.68h.74a2.87,2.87,0,0,0,0-5.73h-.74Z" style="fill:#fff"></path><path d="M225.31,355.53v-7.08a.65.65,0,0,1,.66-.66h1.41a4.2,4.2,0,0,1,0,8.4H226A.65.65,0,0,1,225.31,355.53Zm1.33-.68h.74a2.87,2.87,0,0,0,0-5.73h-.74Z" style="fill:#fff"></path><path d="M242.67,349.12h-1.91v6.41a.66.66,0,0,1-1.32,0v-6.41h-1.89a.66.66,0,0,1-.66-.67.65.65,0,0,1,.66-.66h5.12a.66.66,0,0,1,.66.66A.67.67,0,0,1,242.67,349.12Z" style="fill:#fff"></path><path d="M251.27,348.83a4.44,4.44,0,0,1,1.21,3,4.38,4.38,0,0,1-1.21,3,3.93,3.93,0,0,1-2.87,1.29,4,4,0,0,1-2.93-1.29,4.32,4.32,0,0,1-1.19-3,4.38,4.38,0,0,1,1.19-3,4,4,0,0,1,2.93-1.28A3.89,3.89,0,0,1,251.27,348.83Zm-.16,3a3.11,3.11,0,0,0-.81-2.1,2.59,2.59,0,0,0-3.84,0,3.11,3.11,0,0,0,0,4.19,2.57,2.57,0,0,0,3.84,0A3.08,3.08,0,0,0,251.11,351.87Z" style="fill:#fff"></path><path d="M258.08,351.87a4.4,4.4,0,0,1,4.4-4.32,4.47,4.47,0,0,1,2.77.94.69.69,0,0,1-.84,1.09,3,3,0,0,0-1.93-.66,3.15,3.15,0,0,0-2.16.86,2.95,2.95,0,0,0,0,4.18,3.2,3.2,0,0,0,2.16.86,3,3,0,0,0,1.93-.66.73.73,0,0,1,1,.13.7.7,0,0,1-.12,1,4.47,4.47,0,0,1-2.77.94A4.39,4.39,0,0,1,258.08,351.87Z" style="fill:#fff"></path><path d="M271.8,354.21h-2.91l-.59,1.56a.68.68,0,0,1-.62.42.79.79,0,0,1-.23,0,.68.68,0,0,1-.4-.86l2.65-7.07a.69.69,0,0,1,.64-.42.67.67,0,0,1,.64.42l2.65,7.07a.68.68,0,0,1-.4.86.73.73,0,0,1-.23,0,.66.66,0,0,1-.61-.42Zm-.49-1.32-1-2.58-1,2.58Z" style="fill:#fff"></path><path d="M280.83,355.19a.67.67,0,0,1-.42.84,1.19,1.19,0,0,1-.27,0h0a.88.88,0,0,1-.47-.14,1.19,1.19,0,0,1-.38-.42,3.18,3.18,0,0,1-.25-1.44.93.93,0,0,0-.15-.51,1.1,1.1,0,0,0-.36-.35,2.37,2.37,0,0,0-.67-.29h-1.41v2.61a.67.67,0,0,1-.67.66.65.65,0,0,1-.66-.66v-7.08a.65.65,0,0,1,.66-.66h2.14a2.57,2.57,0,0,1,1.63,4.55,1.77,1.77,0,0,1,.42.44,2.27,2.27,0,0,1,.4,1.29,2.8,2.8,0,0,0,.05.71A.68.68,0,0,1,280.83,355.19Zm-1.68-4.82a1.24,1.24,0,0,0-1.24-1.25h-1.47v2.47h1.47A1.23,1.23,0,0,0,279.15,350.37Z" style="fill:#fff"></path><path d="M287.67,349.12h-1.91v6.41a.66.66,0,1,1-1.32,0v-6.41h-1.89a.66.66,0,0,1-.66-.67.65.65,0,0,1,.66-.66h5.12a.66.66,0,0,1,.66.66A.67.67,0,0,1,287.67,349.12Z" style="fill:#fff"></path><path d="M289.58,273.25c-.09.71-6.2,7.72-12.05,7.7-11.72,0-17.44,5.31-27.53,5.31s-15.81-5.34-27.54-5.31c-5.84,0-12-7-12-7.7s17.26-74,17.26-74a4.9,4.9,0,0,1-1.5-3.36c-.17-2.3,3.94-23.46,4-26.12s-2.26-18.59-2-19.83,6.81-2,7-1.42,1.58,16.29,2.38,17.79S245.75,169,250,169s11.6-1.15,12.4-2.66,2.21-17.17,2.38-17.79,6.73.18,7,1.42-2.08,17.17-2,19.83,4.21,23.82,4,26.12a4.94,4.94,0,0,1-1.51,3.36S289.67,272.54,289.58,273.25Z" style="fill:#2466FF"></path><path d="M236.87,180.88a1.11,1.11,0,1,1,1.12-1.11A1.11,1.11,0,0,1,236.87,180.88Zm0-2a.86.86,0,1,0,.87.86A.86.86,0,0,0,236.87,178.91Zm-1.32,19.29a1.12,1.12,0,1,1,1.12-1.12A1.12,1.12,0,0,1,235.55,198.2Zm0-2a.87.87,0,1,0,.87.86A.87.87,0,0,0,235.55,196.22Zm-8.14.35a1.12,1.12,0,1,1,1.11-1.11A1.12,1.12,0,0,1,227.41,196.57Zm0-2a.87.87,0,1,0,.86.87A.87.87,0,0,0,227.41,194.59ZM236.54,207a1.11,1.11,0,1,1,1.12-1.11A1.11,1.11,0,0,1,236.54,207Zm0-2a.86.86,0,1,0,.87.86A.86.86,0,0,0,236.54,205.05Zm-9.63,3.33a1.12,1.12,0,1,1,1.11-1.12A1.12,1.12,0,0,1,226.91,208.38Zm0-2a.87.87,0,1,0,.86.86A.87.87,0,0,0,226.91,206.4Zm11-17.38a1.12,1.12,0,1,1,1.12-1.11A1.11,1.11,0,0,1,237.86,189Zm0-2a.87.87,0,1,0,.87.87A.87.87,0,0,0,237.86,187Zm3.73,15.15a1.12,1.12,0,1,1,1.11-1.12A1.12,1.12,0,0,1,241.59,202.19Zm0-2a.87.87,0,1,0,.86.86A.86.86,0,0,0,241.59,200.21Zm7.68,14.29a1.12,1.12,0,1,1,1.12-1.11A1.11,1.11,0,0,1,249.27,214.5Zm0-2a.87.87,0,1,0,.87.87A.87.87,0,0,0,249.27,212.52ZM265.53,219a1.11,1.11,0,1,1,1.11-1.11A1.12,1.12,0,0,1,265.53,219Zm0-2a.86.86,0,1,0,.86.86A.86.86,0,0,0,265.53,217ZM245,220.3a1.12,1.12,0,1,1,1.11-1.11A1.11,1.11,0,0,1,245,220.3Zm0-2a.87.87,0,1,0,.86.87A.86.86,0,0,0,245,218.32Zm-11.87,11.14a1.11,1.11,0,1,1,1.11-1.11A1.11,1.11,0,0,1,233.14,229.46Zm0-2a.86.86,0,1,0,.86.86A.87.87,0,0,0,233.14,227.49ZM223,238.58a1.12,1.12,0,1,1,1.11-1.12A1.12,1.12,0,0,1,223,238.58Zm0-2a.87.87,0,1,0,.86.86A.87.87,0,0,0,223,236.6Zm16.35,6a1.12,1.12,0,1,1,1.11-1.12A1.12,1.12,0,0,1,239.32,242.6Zm0-2a.87.87,0,1,0,.86.86A.86.86,0,0,0,239.32,240.62Zm-3.77-75.84a1.12,1.12,0,1,1,1.12-1.11A1.11,1.11,0,0,1,235.55,164.78Zm0-2a.87.87,0,1,0,.87.87A.87.87,0,0,0,235.55,162.8Zm4.76,11.69a1.11,1.11,0,1,1,1.11-1.11A1.12,1.12,0,0,1,240.31,174.49Zm0-2a.86.86,0,1,0,.86.86A.86.86,0,0,0,240.31,172.52Zm12.27,11.82a1.11,1.11,0,1,1,1.12-1.11A1.11,1.11,0,0,1,252.58,184.34Zm0-2a.86.86,0,1,0,.87.86A.87.87,0,0,0,252.58,182.37ZM247.66,190a1.12,1.12,0,1,1,1.12-1.11A1.11,1.11,0,0,1,247.66,190Zm0-2a.87.87,0,1,0,.87.87A.87.87,0,0,0,247.66,188Zm7.89,13.76a1.12,1.12,0,1,1,1.11-1.12A1.12,1.12,0,0,1,255.55,201.79Zm0-2a.87.87,0,1,0,.86.86A.87.87,0,0,0,255.55,199.81ZM265.29,210a1.12,1.12,0,1,1,1.12-1.12A1.12,1.12,0,0,1,265.29,210Zm0-2a.87.87,0,1,0,.87.86A.87.87,0,0,0,265.29,208Zm9.52,10.38a1.12,1.12,0,1,1,1.12-1.11A1.11,1.11,0,0,1,274.81,218.39Zm0-2a.87.87,0,1,0,.87.87A.87.87,0,0,0,274.81,216.41ZM241.3,194.23a1.12,1.12,0,1,1,1.11-1.11A1.12,1.12,0,0,1,241.3,194.23Zm0-2a.87.87,0,1,0,.86.87A.87.87,0,0,0,241.3,192.25Zm7,13.16a1.12,1.12,0,1,1,1.11-1.11A1.12,1.12,0,0,1,248.29,205.41Zm0-2a.87.87,0,1,0,.86.87A.87.87,0,0,0,248.29,203.43Zm-10,13.61a1.12,1.12,0,1,1,1.11-1.12A1.12,1.12,0,0,1,238.33,217Zm0-2a.87.87,0,1,0,.86.86A.87.87,0,0,0,238.33,215.06Zm-5.48,6.67a1.11,1.11,0,1,1,1.12-1.11A1.11,1.11,0,0,1,232.85,221.73Zm0-2a.86.86,0,1,0,.87.86A.86.86,0,0,0,232.85,219.76Zm-9.52,10.59a1.12,1.12,0,1,1,1.11-1.11A1.12,1.12,0,0,1,223.33,230.35Zm0-2a.87.87,0,1,0,.86.87A.87.87,0,0,0,223.33,228.37Zm4.07-2.52a1.12,1.12,0,1,1,1.12-1.12A1.12,1.12,0,0,1,227.4,225.85Zm0-2a.87.87,0,1,0,.87.86A.87.87,0,0,0,227.4,223.87Zm.49-7a1.12,1.12,0,1,1,1.12-1.11A1.11,1.11,0,0,1,227.89,216.84Zm0-2a.87.87,0,1,0,.87.87A.87.87,0,0,0,227.89,214.86Zm11.43,18.6a1.12,1.12,0,1,1,1.11-1.11A1.11,1.11,0,0,1,239.32,233.46Zm0-2a.87.87,0,1,0,.86.87A.86.86,0,0,0,239.32,231.48Zm-10.93,3a1.12,1.12,0,1,1,1.11-1.11A1.11,1.11,0,0,1,228.39,234.45Zm0-2a.87.87,0,1,0,.86.87A.86.86,0,0,0,228.39,232.47ZM219,242.9a1.12,1.12,0,1,1,1.11-1.12A1.12,1.12,0,0,1,219,242.9Zm0-2a.87.87,0,1,0,.86.86A.87.87,0,0,0,219,240.92Zm8.86,2a1.12,1.12,0,1,1,1.12-1.12A1.12,1.12,0,0,1,227.89,242.9Zm0-2a.87.87,0,1,0,.87.86A.87.87,0,0,0,227.89,240.92Zm-10.27,10.74a1.12,1.12,0,1,1,1.11-1.12A1.12,1.12,0,0,1,217.62,251.66Zm0-2a.87.87,0,1,0,.86.86A.86.86,0,0,0,217.62,249.68Zm10.27,2a1.12,1.12,0,1,1,1.12-1.12A1.12,1.12,0,0,1,227.89,251.66Zm0-2a.87.87,0,1,0,.87.86A.87.87,0,0,0,227.89,249.68Zm-10.84,10.74a1.12,1.12,0,1,1,1.11-1.11A1.11,1.11,0,0,1,217.05,260.42Zm0-2a.87.87,0,1,0,.86.87A.86.86,0,0,0,217.05,258.44Zm6.89-37.15a1.12,1.12,0,1,1,1.12-1.12A1.12,1.12,0,0,1,223.94,221.29Zm0-2a.87.87,0,1,0,.87.86A.87.87,0,0,0,223.94,219.31Zm8.63-6.59a1.12,1.12,0,1,1,1.11-1.12A1.12,1.12,0,0,1,232.57,212.72Zm0-2a.87.87,0,1,0,.86.86A.87.87,0,0,0,232.57,210.74Zm-2.29-8.32a1.12,1.12,0,1,1,1.11-1.11A1.12,1.12,0,0,1,230.28,202.42Zm0-2a.87.87,0,1,0,.86.87A.87.87,0,0,0,230.28,200.44Zm1.65-14.12a1.12,1.12,0,1,1,1.11-1.11A1.11,1.11,0,0,1,231.93,186.32Zm0-2a.87.87,0,1,0,.86.87A.86.86,0,0,0,231.93,184.34Zm22.63-8.86a1.12,1.12,0,1,1,1.11-1.11A1.11,1.11,0,0,1,254.56,175.48Zm0-2a.87.87,0,1,0,.86.87A.86.86,0,0,0,254.56,173.5Zm11,3.43a1.12,1.12,0,1,1,1.11-1.11A1.12,1.12,0,0,1,265.53,176.93Zm0-2a.87.87,0,1,0,.86.87A.87.87,0,0,0,265.53,175Zm-4.46,22a1.12,1.12,0,1,1,1.11-1.11A1.12,1.12,0,0,1,261.07,196.9Zm0-2a.87.87,0,1,0,.86.87A.87.87,0,0,0,261.07,194.92ZM254.56,210a1.12,1.12,0,1,1,1.11-1.12A1.11,1.11,0,0,1,254.56,210Zm0-2a.87.87,0,1,0,.86.86A.86.86,0,0,0,254.56,208Zm-15.71,16.55a1.11,1.11,0,1,1,1.11-1.11A1.11,1.11,0,0,1,238.85,224.56Zm0-2a.86.86,0,1,0,.86.86A.85.85,0,0,0,238.85,222.59Zm5.59,6.27a1.11,1.11,0,1,1,1.11-1.11A1.11,1.11,0,0,1,244.44,228.86Zm0-2a.86.86,0,1,0,.86.86A.85.85,0,0,0,244.44,226.89Zm21.55,1.7a1.11,1.11,0,1,1,1.11-1.11A1.11,1.11,0,0,1,266,228.59Zm0-2a.86.86,0,1,0,.86.86A.85.85,0,0,0,266,226.62Zm11.54,8.62a1.11,1.11,0,1,1,1.11-1.11A1.12,1.12,0,0,1,277.53,235.24Zm0-2a.86.86,0,1,0,.86.86A.86.86,0,0,0,277.53,233.27Zm-3.14,15.4a1.12,1.12,0,1,1,1.12-1.11A1.11,1.11,0,0,1,274.39,248.67Zm0-2a.87.87,0,1,0,.87.87A.87.87,0,0,0,274.39,246.69Zm2,10a1.11,1.11,0,1,1,1.12-1.11A1.11,1.11,0,0,1,276.37,256.65Zm0-2a.86.86,0,1,0,.87.86A.86.86,0,0,0,276.37,254.68Zm8.3,14.61a1.12,1.12,0,1,1,1.11-1.12A1.12,1.12,0,0,1,284.67,269.29Zm0-2a.87.87,0,1,0,.86.86A.87.87,0,0,0,284.67,267.31ZM278,266a1.11,1.11,0,1,1,1.11-1.11A1.12,1.12,0,0,1,278,266Zm0-2a.86.86,0,1,0,.86.86A.86.86,0,0,0,278,264Zm3-12.93a1.12,1.12,0,1,1,1.11-1.11A1.12,1.12,0,0,1,281,251.06Zm0-2a.87.87,0,1,0,.86.87A.87.87,0,0,0,281,249.08ZM258.9,264a1.12,1.12,0,1,1,1.11-1.12A1.12,1.12,0,0,1,258.9,264Zm0-2a.87.87,0,1,0,.86.86A.87.87,0,0,0,258.9,262Zm-12.33,10.67a1.11,1.11,0,1,1,1.11-1.11A1.11,1.11,0,0,1,246.57,272.68Zm0-2a.86.86,0,1,0,.86.86A.87.87,0,0,0,246.57,270.71ZM253,277a1.12,1.12,0,1,1,1.12-1.11A1.11,1.11,0,0,1,253,277Zm0-2a.87.87,0,1,0,.87.87A.87.87,0,0,0,253,275Zm.17,10.94a1.12,1.12,0,1,1,1.11-1.11A1.11,1.11,0,0,1,253.18,285.91Zm0-2a.87.87,0,1,0,.86.87A.87.87,0,0,0,253.18,283.93Zm-6.61-19.49a1.12,1.12,0,1,1,1.11-1.12A1.12,1.12,0,0,1,246.57,264.44Zm0-2a.87.87,0,1,0,.86.86A.87.87,0,0,0,246.57,262.46Zm8.59-33.6a1.11,1.11,0,1,1,1.11-1.11A1.12,1.12,0,0,1,255.16,228.86Zm0-2a.86.86,0,1,0,.86.86A.86.86,0,0,0,255.16,226.89Zm1,11.28a1.12,1.12,0,1,1,1.11-1.12A1.12,1.12,0,0,1,256.15,238.17Zm0-2a.87.87,0,1,0,.86.86A.87.87,0,0,0,256.15,236.19Zm.39,10.5a1.12,1.12,0,1,1,1.11-1.11A1.12,1.12,0,0,1,256.54,246.69Zm0-2a.87.87,0,1,0,.86.87A.87.87,0,0,0,256.54,244.71Zm-2-25.4a1.12,1.12,0,1,1,1.11-1.11A1.11,1.11,0,0,1,254.56,219.31Zm0-2a.87.87,0,1,0,.86.87A.86.86,0,0,0,254.56,217.33Zm-4.3,6.85a1.12,1.12,0,1,1,1.12-1.12A1.12,1.12,0,0,1,250.26,224.18Zm0-2a.87.87,0,1,0,.87.86A.87.87,0,0,0,250.26,222.2ZM250,233.83a1.12,1.12,0,1,1,1.11-1.11A1.12,1.12,0,0,1,250,233.83Zm0-2a.87.87,0,1,0,.86.87A.87.87,0,0,0,250,231.85Zm-16.16,6.73a1.12,1.12,0,1,1,1.12-1.12A1.12,1.12,0,0,1,233.84,238.58Zm0-2a.87.87,0,1,0,.87.86A.87.87,0,0,0,233.84,236.6Zm6,15.06a1.12,1.12,0,1,1,1.11-1.12A1.11,1.11,0,0,1,239.84,251.66Zm0-2a.87.87,0,1,0,.86.86A.86.86,0,0,0,239.84,249.68ZM227.4,260.14a1.12,1.12,0,1,1,1.12-1.12A1.12,1.12,0,0,1,227.4,260.14Zm0-2a.87.87,0,1,0,.87.86A.87.87,0,0,0,227.4,258.16Zm18.18-1.76a1.12,1.12,0,1,1,1.11-1.12A1.12,1.12,0,0,1,245.58,256.4Zm0-2a.87.87,0,1,0,.86.86A.87.87,0,0,0,245.58,254.42Zm6.12,6a1.12,1.12,0,1,1,1.11-1.11A1.11,1.11,0,0,1,251.7,260.42Zm0-2a.87.87,0,1,0,.86.87A.86.86,0,0,0,251.7,258.44Zm-12.38,9.86a1.12,1.12,0,1,1,1.11-1.12A1.12,1.12,0,0,1,239.32,268.3Zm0-2a.87.87,0,1,0,.86.86A.86.86,0,0,0,239.32,266.32Zm0,10.63a1.12,1.12,0,1,1,1.11-1.11A1.11,1.11,0,0,1,239.32,277Zm0-2a.87.87,0,1,0,.86.87A.86.86,0,0,0,239.32,275Zm7.25,6.94a1.12,1.12,0,1,1,1.11-1.12A1.12,1.12,0,0,1,246.57,281.91Zm0-2a.87.87,0,1,0,.86.86A.87.87,0,0,0,246.57,279.93ZM223,247.68a1.12,1.12,0,1,1,1.11-1.11A1.12,1.12,0,0,1,223,247.68Zm0-2a.87.87,0,1,0,.86.87A.87.87,0,0,0,223,245.7Zm-.63,10.08a1.11,1.11,0,1,1,0-2.22,1.11,1.11,0,1,1,0,2.22Zm0-2a.86.86,0,1,0,.86.86A.86.86,0,0,0,222.34,253.81Zm28.37-11.21a1.12,1.12,0,1,1,1.12-1.12A1.12,1.12,0,0,1,250.71,242.6Zm0-2a.87.87,0,1,0,.87.86A.87.87,0,0,0,250.71,240.62ZM246,247.19a1.11,1.11,0,1,1,1.11-1.11A1.11,1.11,0,0,1,246,247.19Zm0-2a.86.86,0,1,0,.86.86A.86.86,0,0,0,246,245.22Zm-6.33,15.2a1.12,1.12,0,1,1,1.12-1.11A1.11,1.11,0,0,1,239.67,260.42Zm0-2a.87.87,0,1,0,.87.87A.87.87,0,0,0,239.67,258.44Zm-11.53,9.86a1.12,1.12,0,1,1,1.12-1.12A1.12,1.12,0,0,1,228.14,268.3Zm0-2a.87.87,0,1,0,.87.86A.87.87,0,0,0,228.14,266.32Zm-.25,11.32a1.11,1.11,0,1,1,1.12-1.11A1.11,1.11,0,0,1,227.89,277.64Zm0-2a.86.86,0,1,0,.87.86A.86.86,0,0,0,227.89,275.67Zm5.47-3.42a1.12,1.12,0,1,1,1.11-1.11A1.12,1.12,0,0,1,233.36,272.25Zm0-2a.87.87,0,1,0,.86.87A.87.87,0,0,0,233.36,270.27Zm1.18,12.11a1.12,1.12,0,1,1,1.12-1.11A1.11,1.11,0,0,1,234.54,282.38Zm0-2a.87.87,0,1,0,.87.87A.87.87,0,0,0,234.54,280.4Zm-20.8-16a1.12,1.12,0,1,1,1.12-1.12A1.12,1.12,0,0,1,213.74,264.44Zm0-2a.87.87,0,1,0,.87.86A.87.87,0,0,0,213.74,262.46Zm44.17-6.31A1.12,1.12,0,1,1,259,255,1.12,1.12,0,0,1,257.91,256.15Zm0-2a.87.87,0,1,0,.86.86A.87.87,0,0,0,257.91,254.17Zm6.63,5a1.12,1.12,0,1,1,1.11-1.12A1.12,1.12,0,0,1,264.54,259.15Zm0-2a.87.87,0,1,0,.86.86A.87.87,0,0,0,264.54,257.17Zm-10.37,11.42a1.12,1.12,0,1,1,1.11-1.11A1.11,1.11,0,0,1,254.17,268.59Zm0-2a.87.87,0,1,0,.86.87A.86.86,0,0,0,254.17,266.61Zm13.1,9.57a1.12,1.12,0,1,1,1.11-1.12A1.12,1.12,0,0,1,267.27,276.18Zm0-2a.87.87,0,1,0,.86.86A.87.87,0,0,0,267.27,274.2Zm-1-6.6a1.11,1.11,0,1,1,1.12-1.11A1.11,1.11,0,0,1,266.28,267.6Zm0-2a.86.86,0,1,0,.87.86A.86.86,0,0,0,266.28,265.63Zm-.75-109a1.12,1.12,0,1,1,1.11-1.11A1.12,1.12,0,0,1,265.53,156.64Zm0-2a.87.87,0,1,0,.86.87A.87.87,0,0,0,265.53,154.66Zm-18.62,16.48A1.12,1.12,0,1,1,248,170,1.12,1.12,0,0,1,246.91,171.14Zm0-2a.87.87,0,1,0,.86.86A.87.87,0,0,0,246.91,169.16ZM260.08,188a1.11,1.11,0,1,1,1.11-1.11A1.12,1.12,0,0,1,260.08,188Zm0-2a.86.86,0,1,0,.86.86A.86.86,0,0,0,260.08,186.06ZM248.29,198.2a1.12,1.12,0,1,1,1.11-1.12A1.12,1.12,0,0,1,248.29,198.2Zm0-2a.87.87,0,1,0,.86.86A.87.87,0,0,0,248.29,196.22Zm17.55-5a1.12,1.12,0,1,1,1.11-1.12A1.12,1.12,0,0,1,265.84,191.25Zm0-2a.87.87,0,1,0,.86.86A.87.87,0,0,0,265.84,189.27Zm1.43,12.52a1.12,1.12,0,1,1,1.11-1.12A1.12,1.12,0,0,1,267.27,201.79Zm0-2a.87.87,0,1,0,.86.86A.87.87,0,0,0,267.27,199.81ZM243,211a1.12,1.12,0,1,1,1.12-1.12A1.12,1.12,0,0,1,243,211Zm0-2a.87.87,0,1,0,.87.86A.87.87,0,0,0,243,209Zm28.69-1.61a1.12,1.12,0,1,1,1.11-1.12A1.12,1.12,0,0,1,271.72,207.39Zm0-2a.87.87,0,1,0,.86.86A.87.87,0,0,0,271.72,205.41ZM243,184.34a1.11,1.11,0,1,1,1.12-1.11A1.11,1.11,0,0,1,243,184.34Zm0-2a.86.86,0,1,0,.87.86A.87.87,0,0,0,243,182.37Zm-11.1,10.87a1.11,1.11,0,1,1,1.11-1.11A1.11,1.11,0,0,1,231.93,193.24Zm0-2a.86.86,0,1,0,.86.86A.85.85,0,0,0,231.93,191.27Zm34.59-25.5a1.12,1.12,0,1,1,1.11-1.11A1.12,1.12,0,0,1,266.52,165.77Zm0-2a.87.87,0,1,0,.86.87A.87.87,0,0,0,266.52,163.79Zm-6.76,17.09a1.11,1.11,0,1,1,1.11-1.11A1.11,1.11,0,0,1,259.76,180.88Zm0-2a.86.86,0,1,0,.86.86A.85.85,0,0,0,259.76,178.91Zm-28.93-20.6a1.12,1.12,0,1,1,1.11-1.11A1.11,1.11,0,0,1,230.83,158.31Zm0-2a.87.87,0,1,0,.86.87A.86.86,0,0,0,230.83,156.33Zm16.47,23a1.12,1.12,0,1,1,1.11-1.12A1.12,1.12,0,0,1,247.3,179.33Zm0-2a.87.87,0,1,0,.86.86A.87.87,0,0,0,247.3,177.35Zm6.27,15.56a1.12,1.12,0,1,1,1.11-1.12A1.12,1.12,0,0,1,253.57,192.91Zm0-2a.87.87,0,1,0,.86.86A.86.86,0,0,0,253.57,190.93Zm6.51,15.1a1.11,1.11,0,1,1,1.11-1.11A1.12,1.12,0,0,1,260.08,206Zm0-2a.86.86,0,1,0,.86.86A.86.86,0,0,0,260.08,204.06Zm10.31,10a1.12,1.12,0,1,1,1.12-1.11A1.11,1.11,0,0,1,270.39,214.07Zm0-2a.87.87,0,1,0,.87.87A.87.87,0,0,0,270.39,212.09ZM277,227.87a1.11,1.11,0,1,1,1.11-1.11A1.12,1.12,0,0,1,277,227.87Zm0-2a.86.86,0,1,0,.86.86A.86.86,0,0,0,277,225.9Zm-17.24-10.84a1.12,1.12,0,1,1,1.11-1.11A1.11,1.11,0,0,1,259.76,215.06Zm0-2a.87.87,0,1,0,.86.87A.86.86,0,0,0,259.76,213.08Zm1,11.1a1.12,1.12,0,1,1,1.11-1.12A1.12,1.12,0,0,1,260.75,224.18Zm0-2a.87.87,0,1,0,.86.86A.87.87,0,0,0,260.75,222.2Zm10,1.37a1.11,1.11,0,1,1,1.11-1.11A1.12,1.12,0,0,1,270.73,223.57Zm0-2a.86.86,0,1,0,.86.86A.86.86,0,0,0,270.73,221.6Zm-9.66,11.24a1.11,1.11,0,1,1,1.11-1.11A1.12,1.12,0,0,1,261.07,232.84Zm0-2a.86.86,0,1,0,.86.86A.86.86,0,0,0,261.07,230.87Zm-16.63,7.71a1.12,1.12,0,1,1,1.11-1.12A1.12,1.12,0,0,1,244.44,238.58Zm0-2a.87.87,0,1,0,.86.86A.86.86,0,0,0,244.44,236.6Zm-10.88,11.08a1.12,1.12,0,1,1,1.11-1.11A1.12,1.12,0,0,1,233.56,247.68Zm0-2a.87.87,0,1,0,.86.87A.87.87,0,0,0,233.56,245.7Zm0,10.57a1.12,1.12,0,1,1,1.11-1.12A1.12,1.12,0,0,1,233.56,256.27Zm0-2a.87.87,0,1,0,.86.86A.87.87,0,0,0,233.56,254.29Zm-.42,9.7a1.12,1.12,0,1,1,1.11-1.12A1.12,1.12,0,0,1,233.14,264Zm0-2a.87.87,0,1,0,.86.86A.87.87,0,0,0,233.14,262Zm-15.81,6.89a1.12,1.12,0,1,1,1.11-1.11A1.12,1.12,0,0,1,217.33,268.9Zm0-2a.87.87,0,1,0,.86.87A.87.87,0,0,0,217.33,266.92Zm.71,10.72a1.11,1.11,0,1,1,1.11-1.11A1.11,1.11,0,0,1,218,277.64Zm0-2a.86.86,0,1,0,.86.86A.86.86,0,0,0,218,275.67ZM222,264a1.12,1.12,0,1,1,1.11-1.12A1.12,1.12,0,0,1,222,264Zm0-2a.87.87,0,1,0,.86.86A.87.87,0,0,0,222,262Zm-9,12.05a1.12,1.12,0,1,1,1.12-1.11A1.11,1.11,0,0,1,213,274.06Zm0-2a.87.87,0,1,0,.87.87A.87.87,0,0,0,213,272.08Zm10.11.41a1.12,1.12,0,1,1,1.11-1.11A1.11,1.11,0,0,1,223.12,272.49Zm0-2a.87.87,0,1,0,.86.87A.86.86,0,0,0,223.12,270.51Zm44.15-33.91a1.12,1.12,0,1,1,1.11-1.11A1.11,1.11,0,0,1,267.27,236.6Zm0-2a.87.87,0,1,0,.86.87A.87.87,0,0,0,267.27,234.62Zm12.23,8.65a1.12,1.12,0,1,1,1.12-1.12A1.12,1.12,0,0,1,279.5,243.27Zm0-2a.87.87,0,1,0,.87.86A.87.87,0,0,0,279.5,241.29Zm-11.24,4.41a1.11,1.11,0,1,1,1.11-1.11A1.11,1.11,0,0,1,268.26,245.7Zm0-2a.86.86,0,1,0,.86.86A.85.85,0,0,0,268.26,243.73Zm-5.53-1.45a1.12,1.12,0,1,1,1.11-1.12A1.12,1.12,0,0,1,262.73,242.28Zm0-2a.87.87,0,1,0,.86.86A.87.87,0,0,0,262.73,240.3Zm-11,11.36a1.12,1.12,0,1,1,1.11-1.12A1.12,1.12,0,0,1,251.7,251.66Zm0-2a.87.87,0,1,0,.86.86A.86.86,0,0,0,251.7,249.68Zm20.47-17.4a1.12,1.12,0,1,1,1.11-1.12A1.12,1.12,0,0,1,272.17,232.28Zm0-2a.87.87,0,1,0,.86.86A.86.86,0,0,0,272.17,230.3Zm1.24,10.32a1.12,1.12,0,1,1,1.11-1.11A1.12,1.12,0,0,1,273.41,240.62Zm0-2a.87.87,0,1,0,.86.87A.87.87,0,0,0,273.41,238.64Zm-10.68,12a1.12,1.12,0,1,1,1.11-1.11A1.12,1.12,0,0,1,262.73,250.67Zm0-2a.87.87,0,1,0,.86.87A.87.87,0,0,0,262.73,248.69Zm8.45,13.42a1.11,1.11,0,0,1,0-2.22,1.11,1.11,0,1,1,0,2.22Zm0-2a.86.86,0,1,0,.86.86A.86.86,0,0,0,271.18,260.14Zm-11.1,12.95a1.12,1.12,0,1,1,1.11-1.12A1.12,1.12,0,0,1,260.08,273.09Zm0-2a.87.87,0,1,0,.86.86A.87.87,0,0,0,260.08,271.11Zm14.31,8.82a1.12,1.12,0,1,1,1.12-1.11A1.11,1.11,0,0,1,274.39,279.93Zm0-2a.87.87,0,1,0,.87.87A.87.87,0,0,0,274.39,278Zm-14.5,3.62a1.12,1.12,0,1,1,1.11-1.12A1.12,1.12,0,0,1,259.89,281.57Zm0-2a.87.87,0,1,0,.86.86A.87.87,0,0,0,259.89,279.59Zm9.61-25.81a1.11,1.11,0,1,1,1.11-1.11A1.11,1.11,0,0,1,269.5,253.78Zm0-2a.86.86,0,1,0,.86.86A.87.87,0,0,0,269.5,251.81ZM283,260.14a1.12,1.12,0,1,1,1.12-1.12A1.12,1.12,0,0,1,283,260.14Zm0-2a.87.87,0,1,0,.87.86A.87.87,0,0,0,283,258.16Zm-9.79,13.1a1.11,1.11,0,1,1,1.11-1.11A1.12,1.12,0,0,1,273.16,271.26Zm0-2a.86.86,0,1,0,.86.86A.86.86,0,0,0,273.16,269.29Zm6.83,5.77A1.11,1.11,0,1,1,281.1,274,1.11,1.11,0,0,1,280,275.06Zm0-2a.86.86,0,1,0,.86.86A.85.85,0,0,0,280,273.09Zm-8.27-77.87a1.12,1.12,0,1,1,1.11-1.11A1.12,1.12,0,0,1,271.72,195.22Zm0-2a.87.87,0,1,0,.86.87A.87.87,0,0,0,271.72,193.24Zm-12-22.49a1.12,1.12,0,1,1,1.11-1.11A1.11,1.11,0,0,1,259.76,170.75Zm0-2a.87.87,0,1,0,.86.87A.86.86,0,0,0,259.76,168.77Zm8.05,16.09a1.12,1.12,0,1,1,1.12-1.11A1.11,1.11,0,0,1,267.81,184.86Zm0-2a.87.87,0,1,0,.87.87A.87.87,0,0,0,267.81,182.88ZM269.75,152a1.12,1.12,0,1,1,1.11-1.12A1.12,1.12,0,0,1,269.75,152Zm0-2a.87.87,0,1,0,.86.86A.86.86,0,0,0,269.75,150Zm-36.61,22.1a1.12,1.12,0,1,1,1.11-1.12A1.12,1.12,0,0,1,233.14,172.13Zm0-2a.87.87,0,1,0,.86.86A.87.87,0,0,0,233.14,170.15Zm-2.86,8.76a1.12,1.12,0,1,1,1.11-1.12A1.12,1.12,0,0,1,230.28,178.91Zm0-2a.87.87,0,1,0,.86.86A.87.87,0,0,0,230.28,176.93Zm3.63-25.38a1.11,1.11,0,1,1,1.11-1.11A1.12,1.12,0,0,1,233.91,151.55Zm0-2a.86.86,0,1,0,.86.86A.86.86,0,0,0,233.91,149.58Z" style="fill:#fff"></path><path d="M254.93,200.35c-4.7.12-9.28,1.37-14,1.59a30.61,30.61,0,0,1-6.2-.26,21.68,21.68,0,0,1-6-1.91c-.08,0,0-.17.07-.13,3.77,1.93,8.37,1.88,12.48,1.49a103,103,0,0,1,13.58-.91A.07.07,0,0,1,254.93,200.35Zm16-1.11c-3.85,1.74-8.24,1.87-12.4,2-2.24.07-4.49.05-6.73.2a61.07,61.07,0,0,0-6.6.85c-.09,0,0,.16,0,.14a29.43,29.43,0,0,1,7.14-.46c2.26,0,4.52.17,6.79.13A24.69,24.69,0,0,0,271,199.3S271,199.22,271,199.24Zm-37.89,43.37c-.86,5-2.06,10-3,15s-1.83,10.08-2.56,15.14c-.41,2.86-.87,5.72-1.25,8.58,0,.08.1.11.11,0,2.2-9.94,4-20,5.53-30.06.42-2.87.77-5.77,1.28-8.63A.07.07,0,0,0,233.07,242.61Zm1.18,13.84c-.16,2.25-.47,4.47-.69,6.7s-.44,4.31-.63,6.47-.35,4.27-.48,6.41-.08,4.39,0,6.59c0,.09.14.08.14,0,.15-2.2.45-4.39.63-6.6s.35-4.27.49-6.41.24-4.3.36-6.46.15-4.46.34-6.69C234.4,256.36,234.25,256.36,234.25,256.45ZM272,274.88c-.32-2-.74-4-1.14-6-.8-4-1.71-8-2.63-11.92-.52-2.21-1-4.44-1.42-6.67,0-.09-.16-.05-.14,0,1.6,7.9,2.64,15.9,4.37,23.77.24,1.12.52,2.24.8,3.35s.49,2.25.83,3.35c0,.11.23.09.22,0C272.74,278.79,272.35,276.82,272,274.88Z" style="fill:#fff"></path></g><g id="freepik--Box--inject-91"><rect x="305.09" y="358.71" width="89.75" height="63.72" style="fill:#37474f"></rect><rect x="305.1" y="358.71" width="30.56" height="63.72" transform="translate(640.75 781.14) rotate(180)" style="fill:#263238"></rect><path d="M307.2,418q3.41-6.8,6.73-13.63l6.63-13.71,6.54-13.77q3.27-6.89,6.45-13.83-3.39,6.79-6.73,13.64l-6.63,13.7-6.54,13.77Q310.4,411.1,307.2,418Z" style="fill:#37474f"></path><path d="M307.2,363.1q3.19,6.93,6.45,13.83l6.54,13.77,6.63,13.71q3.33,6.84,6.73,13.63-3.19-6.93-6.45-13.83l-6.54-13.77-6.63-13.7Q310.6,369.89,307.2,363.1Z" style="fill:#37474f"></path><polygon points="404.69 372.93 345.51 372.93 335.66 358.71 394.84 358.71 404.69 372.93" style="fill:#455a64"></polygon><polygon points="325.8 372.93 295.25 372.93 305.1 358.71 335.66 358.71 325.8 372.93" style="fill:#455a64"></polygon></g><g id="freepik--Bag--inject-91"><polygon points="361.12 431.05 455.03 431.05 441.33 335.39 374.81 335.39 361.12 431.05" style="fill:#2466FF"></polygon><polygon points="374.81 335.39 385.25 431.06 361.12 431.06 374.81 335.39" style="fill:#263238;opacity:0.1"></polygon><path d="M422.11,342.09c0-.08-1.71-8.1-3.53-16.19-1.51-6.75-8.22-9.86-13.82-8.95-2,.32-8.38,2-7.55,10.27,1,9.5,1.69,14.09,1.7,14.14l-4,.64c0-.19-.76-4.74-1.73-14.38-.77-7.69,3.51-13.42,10.89-14.62s16.34,3,18.37,12c1.82,8.11,3.52,16.15,3.53,16.23Z" style="fill:#263238"></path><path d="M384,430.32c-2.13-1-4.21-2.15-6.29-3.27l-3.08-1.73c-1-.59-2.07-1.15-3.08-1.76l.4,0c-1.62,1.15-3.2,2.34-4.85,3.46s-3.27,2.25-4.95,3.31c1.51-1.29,3.07-2.53,4.63-3.75s3.16-2.4,4.74-3.61l.18-.14.22.12c1,.57,2,1.19,3.06,1.78l3,1.81C380,427.76,382,429,384,430.32Z" style="fill:#fff"></path><polygon points="371.71 423.25 371.84 414.08 372.05 404.92 372.59 386.59 373.3 368.27 373.71 359.12 374.21 349.96 374.08 359.13 373.87 368.29 373.34 386.62 372.63 404.94 372.21 414.09 371.71 423.25" style="fill:#fff"></polygon><path d="M420.08,341.68a4,4,0,1,0,4-4A4,4,0,0,0,420.08,341.68Z" style="fill:#263238"></path><path d="M393.25,341.68a4,4,0,1,0,4-4A4,4,0,0,0,393.25,341.68Z" style="fill:#263238"></path></g><g id="freepik--Chair--inject-91"><rect x="134.39" y="334.01" width="58.83" height="18.23" style="fill:#37474f"></rect><polygon points="149.45 352.24 147.6 364.01 134.89 439.79 130.52 439.79 137.2 364.01 138.23 352.24 149.45 352.24" style="fill:#37474f"></polygon><polygon points="138.23 352.24 149.45 352.24 147.6 364.01 137.2 364.01 138.23 352.24" style="fill:#263238"></polygon><polygon points="197.09 439.79 192.72 439.79 180.01 364.01 178.16 352.24 189.38 352.24 190.41 364.01 197.09 439.79" style="fill:#37474f"></polygon><polygon points="190.41 364.01 180.01 364.01 178.16 352.24 189.38 352.24 190.41 364.01" style="fill:#263238"></polygon></g></svg>