<svg xmlns="http://www.w3.org/2000/svg" xmlns:xlink="http://www.w3.org/1999/xlink" viewBox="0 0 500 500"><defs><clipPath id="freepik--clip-path--inject-124"><path d="M177.09,138.86c-11.22,6.32-20.31,22.07-20.31,35.17s9.09,18.48,20.31,12,20.31-22.22,20.31-35.18S188.3,132.53,177.09,138.86Z" style="fill:none"></path></clipPath></defs><g id="freepik--Shadow--inject-124"><ellipse cx="315.71" cy="379.86" rx="45.91" ry="21.88" style="fill:#ebebeb"></ellipse><ellipse cx="397.04" cy="334.96" rx="35.42" ry="16.88" style="fill:#ebebeb"></ellipse></g><g id="freepik--Plants--inject-124"><path d="M144.59,330.23c-2-10.56-9.32-25.61-18.25-34-8.59-8.06-21.34-10.87-26.42-7.15s-1.75,11.76,8.11,21.56c11.13,11.05,32.5,41.71,36.56,59.08Z" style="fill:#407BFF"></path><g style="opacity:0.2"><path d="M144.59,330.23c-2-10.56-9.32-25.61-18.25-34-8.59-8.06-21.34-10.87-26.42-7.15s-1.75,11.76,8.11,21.56c11.13,11.05,32.5,41.71,36.56,59.08Z"></path></g><path d="M144.59,355.64a.51.51,0,0,1-.5-.46c-2.52-26.6-21.12-56.5-39-62.73a.51.51,0,0,1-.31-.64.51.51,0,0,1,.64-.31c18.54,6.45,37.09,36.17,39.69,63.59a.51.51,0,0,1-.45.55Z" style="fill:#fff"></path><path d="M144.59,382.49s-3.46,2.76-15,1.68-17.49-9.33-17.49-12.87,10.61-4.15,12.91-12.93a15.34,15.34,0,0,1-8.84,4.69c-6,1.13-10.82-.79-12.19-11.72a19.6,19.6,0,0,0,8.82-.73c4.75-1.53,5.88-4.14,4.64-4.7s-7.86,0-12.1-1.61-1-23.69,1.78-25.26,15.93,2.13,18.49,4.11c2.28,1.76,5.48,4.81,4,11.26a16.17,16.17,0,0,0,4-5.88c1.24-3,2.14-2.3,4-1.15a9,9,0,0,1,4.39,6c.45,2.8-.28,12.46-4.22,15.6,0,0,3.78.48,6.87-5.9,0,0,6,2.42,7.36,6.34S154.85,372.53,144.59,382.49Z" style="fill:#407BFF"></path><path d="M145.61,384.67a.51.51,0,0,1-.5-.44c-2.64-21.61-19.07-50-35.18-60.66a.5.5,0,0,1,.56-.84c16.31,10.85,33,39.53,35.61,61.38a.5.5,0,0,1-.43.56Z" style="fill:#fff"></path></g><g id="freepik--Device--inject-124"><path d="M146.62,387.69a4.65,4.65,0,0,1-2-3.67V145.11a4.78,4.78,0,0,1,2.17-3.75l150-86.62a4.07,4.07,0,0,1,6.23,3.6L150.82,387.61A4.64,4.64,0,0,1,146.62,387.69Z" style="fill:#e0e0e0"></path><path d="M148.65,149.65l60.93-39.87-4.06-2.35-58.76,33.93a4.78,4.78,0,0,0-2.17,3.75v2.19Z" style="fill:#37474f"></path><path d="M148.65,149.65l60.93-39.87-4.06-2.35-58.76,33.93a4.78,4.78,0,0,0-2.17,3.75v2.19Z" style="fill:#37474f;opacity:0.2"></path><path d="M169,156.68,145.22,143a4.43,4.43,0,0,0-.63,2.13V384a4.07,4.07,0,0,0,6.23,3.59L169,377.14Z" style="fill:#263238"></path><path d="M169,156.68,145.22,143a4.43,4.43,0,0,0-.63,2.13V384a4.07,4.07,0,0,0,6.23,3.59L169,377.14Z" style="fill:#263238;opacity:0.4"></path><path d="M150.82,387.61l150-86.62a4.78,4.78,0,0,0,2.17-3.75V58.34c0-1.38-1-1.94-2.17-1.25l-150,86.62a4.78,4.78,0,0,0-2.17,3.75v238.9C148.65,387.74,149.62,388.3,150.82,387.61Z" style="fill:#455a64"></path><path d="M150.82,387.61l150-86.62a4.78,4.78,0,0,0,2.17-3.75V58.34c0-1.38-1-1.94-2.17-1.25l-150,86.62a4.78,4.78,0,0,0-2.17,3.75v238.9C148.65,387.74,149.62,388.3,150.82,387.61Z" style="fill:#455a64;opacity:0.1"></path><path d="M161.11,202.64l36-20.8c2.39-1.38,4.33-.4,4.33,2.19a9.29,9.29,0,0,1-4.33,7.19l-36,20.8c-2.4,1.38-4.33.4-4.33-2.19A9.26,9.26,0,0,1,161.11,202.64Z" style="fill:#407BFF"></path><path d="M161.11,217.4l23.83-13.76c2.39-1.38,4.33-.4,4.33,2.19a9.29,9.29,0,0,1-4.33,7.19l-23.83,13.76c-2.4,1.38-4.33.4-4.33-2.19A9.26,9.26,0,0,1,161.11,217.4Z" style="fill:#407BFF"></path><path d="M158.51,242.66l4.66-2.69c1-.55,1.73-.1,1.73,1v5.38a3.83,3.83,0,0,1-1.73,3L158.51,252c-1,.56-1.73.11-1.73-1v-5.38A3.84,3.84,0,0,1,158.51,242.66Z" style="fill:#407BFF"></path><path d="M158.51,242.66l4.66-2.69c1-.55,1.73-.1,1.73,1v5.38a3.83,3.83,0,0,1-1.73,3L158.51,252c-1,.56-1.73.11-1.73-1v-5.38A3.84,3.84,0,0,1,158.51,242.66Z" style="opacity:0.2"></path><path d="M158.51,261.43l4.66-2.69c1-.56,1.73-.11,1.73,1v5.38a3.86,3.86,0,0,1-1.73,3l-4.66,2.69c-1,.55-1.73.1-1.73-1v-5.38A3.81,3.81,0,0,1,158.51,261.43Z" style="fill:#407BFF"></path><g style="opacity:0.2"><path d="M158.51,261.43l4.66-2.69c1-.56,1.73-.11,1.73,1v5.38a3.86,3.86,0,0,1-1.73,3l-4.66,2.69c-1,.55-1.73.1-1.73-1v-5.38A3.81,3.81,0,0,1,158.51,261.43Z"></path></g><path d="M171.13,256.49l28.16-16.27c1.2-.69,2.17-.2,2.17,1.1a4.64,4.64,0,0,1-2.17,3.59l-28.16,16.27c-1.2.69-2.17.2-2.17-1.1A4.64,4.64,0,0,1,171.13,256.49Z" style="fill:#407BFF"></path><path d="M171.13,256.49l28.16-16.27c1.2-.69,2.17-.2,2.17,1.1a4.64,4.64,0,0,1-2.17,3.59l-28.16,16.27c-1.2.69-2.17.2-2.17-1.1A4.64,4.64,0,0,1,171.13,256.49Z" style="opacity:0.2"></path><path d="M158.51,280.19l4.66-2.69c1-.56,1.73-.11,1.73,1v5.38a3.85,3.85,0,0,1-1.73,3l-4.66,2.69c-1,.55-1.73.1-1.73-1v-5.38A3.81,3.81,0,0,1,158.51,280.19Z" style="fill:#e0e0e0"></path><path d="M171.13,275.25,199.29,259c1.2-.69,2.17-.2,2.17,1.1a4.62,4.62,0,0,1-2.17,3.59l-28.16,16.27c-1.2.69-2.17.2-2.17-1.1A4.64,4.64,0,0,1,171.13,275.25Z" style="fill:#f0f0f0"></path><path d="M158.51,299l4.66-2.69c1-.56,1.73-.11,1.73,1v5.38a3.85,3.85,0,0,1-1.73,3l-4.66,2.69c-1,.55-1.73.1-1.73-1V302A3.81,3.81,0,0,1,158.51,299Z" style="fill:#e0e0e0"></path><path d="M171.13,294.06l28.16-16.26c1.2-.7,2.17-.2,2.17,1.09a4.64,4.64,0,0,1-2.17,3.6l-28.16,16.26c-1.2.69-2.17.2-2.17-1.1A4.64,4.64,0,0,1,171.13,294.06Z" style="fill:#f0f0f0"></path><path d="M158.51,317.76l4.66-2.69c1-.56,1.73-.11,1.73,1v5.38a3.85,3.85,0,0,1-1.73,3l-4.66,2.69c-1,.55-1.73.1-1.73-1v-5.38A3.81,3.81,0,0,1,158.51,317.76Z" style="fill:#e0e0e0"></path><path d="M171.13,312.82l28.16-16.26c1.2-.7,2.17-.2,2.17,1.09a4.64,4.64,0,0,1-2.17,3.6l-28.16,16.26c-1.2.69-2.17.2-2.17-1.1A4.64,4.64,0,0,1,171.13,312.82Z" style="fill:#f0f0f0"></path><path d="M158.94,336.22l20-11.57c1.2-.69,2.17-.2,2.17,1.1a4.64,4.64,0,0,1-2.17,3.59l-20,11.57c-1.19.69-2.16.2-2.16-1.09A4.65,4.65,0,0,1,158.94,336.22Z" style="fill:#407BFF"></path><path d="M158.94,345.6l40.35-23.29c1.2-.69,2.17-.2,2.17,1.09a4.64,4.64,0,0,1-2.17,3.6l-40.35,23.29c-1.19.69-2.16.2-2.16-1.09A4.65,4.65,0,0,1,158.94,345.6Z" style="fill:#407BFF"></path><path d="M158.94,345.6l40.35-23.29c1.2-.69,2.17-.2,2.17,1.09a4.64,4.64,0,0,1-2.17,3.6l-40.35,23.29c-1.19.69-2.16.2-2.16-1.09A4.65,4.65,0,0,1,158.94,345.6Z" style="fill:#fff;opacity:0.8"></path><path d="M158.94,345.6l28.17-16.26c1.19-.69,2.16-.2,2.16,1.1a4.65,4.65,0,0,1-2.16,3.59l-28.17,16.26c-1.19.69-2.16.2-2.16-1.09A4.65,4.65,0,0,1,158.94,345.6Z" style="fill:#407BFF"></path><path d="M158.94,355l20-11.57c1.2-.69,2.17-.2,2.17,1.1a4.64,4.64,0,0,1-2.17,3.59l-20,11.57c-1.19.69-2.16.2-2.16-1.09A4.65,4.65,0,0,1,158.94,355Z" style="fill:#407BFF"></path><path d="M171.13,237.72l28.16-16.26c1.2-.69,2.17-.2,2.17,1.1a4.64,4.64,0,0,1-2.17,3.59l-28.16,16.26c-1.2.69-2.17.2-2.17-1.09A4.64,4.64,0,0,1,171.13,237.72Z" style="fill:#407BFF"></path><path d="M171.13,237.72l28.16-16.26c1.2-.69,2.17-.2,2.17,1.1a4.64,4.64,0,0,1-2.17,3.59l-28.16,16.26c-1.2.69-2.17.2-2.17-1.09A4.64,4.64,0,0,1,171.13,237.72Z" style="opacity:0.2"></path><path d="M158.94,355l20-11.57c1.2-.69,2.17-.2,2.17,1.1a4.64,4.64,0,0,1-2.17,3.59l-20,11.57c-1.19.69-2.16.2-2.16-1.09A4.65,4.65,0,0,1,158.94,355Z" style="fill:#407BFF"></path><path d="M158.94,364.35l40.35-23.29c1.2-.69,2.17-.2,2.17,1.09a4.64,4.64,0,0,1-2.17,3.6L158.94,369c-1.19.7-2.16.2-2.16-1.09A4.65,4.65,0,0,1,158.94,364.35Z" style="fill:#407BFF"></path><path d="M158.94,364.35l40.35-23.29c1.2-.69,2.17-.2,2.17,1.09a4.64,4.64,0,0,1-2.17,3.6L158.94,369c-1.19.7-2.16.2-2.16-1.09A4.65,4.65,0,0,1,158.94,364.35Z" style="fill:#fff;opacity:0.8"></path><path d="M158.94,364.35l36.29-21c1.2-.69,2.17-.2,2.17,1.1a4.64,4.64,0,0,1-2.17,3.59l-36.29,21c-1.19.7-2.16.2-2.16-1.09A4.65,4.65,0,0,1,158.94,364.35Z" style="fill:#407BFF"></path><path d="M300.84,57.09l-91.26,52.69v243.9L300.84,301a4.78,4.78,0,0,0,2.17-3.75V58.34C303,57,302,56.4,300.84,57.09Z" style="fill:#ebebeb"></path><path d="M300.84,57.09l-91.26,52.69v243.9L300.84,301a4.78,4.78,0,0,0,2.17-3.75V58.34C303,57,302,56.4,300.84,57.09Z" style="fill:#fafafa;opacity:0.6000000000000001"></path><polygon points="209.58 119.16 209.58 137.92 201.46 147.3 209.58 147.3 209.58 166.06 294.88 116.81 294.88 69.91 209.58 119.16" style="fill:#407BFF"></polygon><g style="opacity:0.6000000000000001"><path d="M220.74,119.81l34.56-20c1.67-1,3-.18,3,1.75v0a6.72,6.72,0,0,1-3,5.25l-34.56,19.95c-1.68,1-3,.18-3-1.75v0A6.69,6.69,0,0,1,220.74,119.81Z" style="fill:#fff"></path></g><path d="M218.79,135l66.89-38.62c.6-.34,1.08-.1,1.08.55a2.32,2.32,0,0,1-1.08,1.8L218.79,137.3c-.6.34-1.08.1-1.08-.55A2.32,2.32,0,0,1,218.79,135Z" style="fill:#407BFF"></path><path d="M218.79,135l66.89-38.62c.6-.34,1.08-.1,1.08.55a2.32,2.32,0,0,1-1.08,1.8L218.79,137.3c-.6.34-1.08.1-1.08-.55A2.32,2.32,0,0,1,218.79,135Z" style="fill:#407BFF"></path><path d="M218.79,135l66.89-38.62c.6-.34,1.08-.1,1.08.55a2.32,2.32,0,0,1-1.08,1.8L218.79,137.3c-.6.34-1.08.1-1.08-.55A2.32,2.32,0,0,1,218.79,135Z" style="fill:#fff;opacity:0.6000000000000001"></path><path d="M218.79,142l66.89-38.62c.6-.35,1.08-.1,1.08.55a2.3,2.3,0,0,1-1.08,1.79l-66.89,38.62c-.6.35-1.08.1-1.08-.55A2.3,2.3,0,0,1,218.79,142Z" style="fill:#407BFF"></path><path d="M218.79,142l66.89-38.62c.6-.35,1.08-.1,1.08.55a2.3,2.3,0,0,1-1.08,1.79l-66.89,38.62c-.6.35-1.08.1-1.08-.55A2.3,2.3,0,0,1,218.79,142Z" style="fill:#fff;opacity:0.6000000000000001"></path><path d="M218.79,149l66.89-38.62c.6-.34,1.08-.1,1.08.55a2.32,2.32,0,0,1-1.08,1.8l-66.89,38.62c-.6.34-1.08.1-1.08-.55A2.32,2.32,0,0,1,218.79,149Z" style="fill:#fff;opacity:0.6000000000000001"></path><path d="M221.31,168.7,226,166c1-.56,1.73-.11,1.73,1v5.38a3.84,3.84,0,0,1-1.73,3l-4.66,2.69c-1,.55-1.73.1-1.73-1V171.7A3.81,3.81,0,0,1,221.31,168.7Z" style="fill:#407BFF"></path><path d="M221.31,168.7,226,166c1-.56,1.73-.11,1.73,1v5.38a3.84,3.84,0,0,1-1.73,3l-4.66,2.69c-1,.55-1.73.1-1.73-1V171.7A3.81,3.81,0,0,1,221.31,168.7Z" style="fill:#fff;opacity:0.2"></path><path d="M233.93,163.76l28.16-16.27c1.2-.69,2.17-.2,2.17,1.1a4.64,4.64,0,0,1-2.17,3.59l-28.16,16.27c-1.2.69-2.17.2-2.17-1.1A4.64,4.64,0,0,1,233.93,163.76Z" style="fill:#407BFF"></path><path d="M233.93,163.76l28.16-16.27c1.2-.69,2.17-.2,2.17,1.1a4.64,4.64,0,0,1-2.17,3.59l-28.16,16.27c-1.2.69-2.17.2-2.17-1.1A4.64,4.64,0,0,1,233.93,163.76Z" style="fill:#fff;opacity:0.8"></path><path d="M220.66,185.5l71-41c.6-.35,1.08-.1,1.08.54a2.31,2.31,0,0,1-1.08,1.8l-71,41c-.6.35-1.08.1-1.08-.55A2.3,2.3,0,0,1,220.66,185.5Z" style="fill:#407BFF"></path><path d="M220.66,192.53l71-41c.6-.34,1.08-.1,1.08.55a2.32,2.32,0,0,1-1.08,1.8l-71,41c-.6.34-1.08.1-1.08-.55A2.32,2.32,0,0,1,220.66,192.53Z" style="fill:#407BFF"></path><path d="M220.66,199.57l71-41c.6-.35,1.08-.1,1.08.54a2.31,2.31,0,0,1-1.08,1.8l-71,41c-.6.35-1.08.1-1.08-.54A2.31,2.31,0,0,1,220.66,199.57Z" style="fill:#407BFF"></path><path d="M220.66,206.62l71-41c.6-.34,1.08-.1,1.08.55a2.32,2.32,0,0,1-1.08,1.8l-71,41c-.6.34-1.08.1-1.08-.55A2.32,2.32,0,0,1,220.66,206.62Z" style="fill:#407BFF"></path><path d="M220.66,185.5l71-41c.6-.35,1.08-.1,1.08.54a2.31,2.31,0,0,1-1.08,1.8l-71,41c-.6.35-1.08.1-1.08-.55A2.3,2.3,0,0,1,220.66,185.5Z" style="fill:#e0e0e0"></path><path d="M220.66,192.53l71-41c.6-.34,1.08-.1,1.08.55a2.32,2.32,0,0,1-1.08,1.8l-71,41c-.6.34-1.08.1-1.08-.55A2.32,2.32,0,0,1,220.66,192.53Z" style="fill:#e0e0e0"></path><path d="M220.66,199.57l71-41c.6-.35,1.08-.1,1.08.54a2.31,2.31,0,0,1-1.08,1.8l-71,41c-.6.35-1.08.1-1.08-.54A2.31,2.31,0,0,1,220.66,199.57Z" style="fill:#e0e0e0"></path><path d="M220.66,206.62l71-41c.6-.34,1.08-.1,1.08.55a2.32,2.32,0,0,1-1.08,1.8l-71,41c-.6.34-1.08.1-1.08-.55A2.32,2.32,0,0,1,220.66,206.62Z" style="fill:#e0e0e0"></path><path d="M220.66,185.5l71-41c.6-.35,1.08-.1,1.08.54a2.31,2.31,0,0,1-1.08,1.8l-71,41c-.6.35-1.08.1-1.08-.55A2.3,2.3,0,0,1,220.66,185.5Z" style="fill:#e0e0e0;opacity:0.8"></path><path d="M220.66,192.53l71-41c.6-.34,1.08-.1,1.08.55a2.32,2.32,0,0,1-1.08,1.8l-71,41c-.6.34-1.08.1-1.08-.55A2.32,2.32,0,0,1,220.66,192.53Z" style="fill:#e0e0e0;opacity:0.8"></path><path d="M220.66,199.57l71-41c.6-.35,1.08-.1,1.08.54a2.31,2.31,0,0,1-1.08,1.8l-71,41c-.6.35-1.08.1-1.08-.54A2.31,2.31,0,0,1,220.66,199.57Z" style="fill:#e0e0e0;opacity:0.8"></path><path d="M220.66,206.62l71-41c.6-.34,1.08-.1,1.08.55a2.32,2.32,0,0,1-1.08,1.8l-71,41c-.6.34-1.08.1-1.08-.55A2.32,2.32,0,0,1,220.66,206.62Z" style="fill:#e0e0e0;opacity:0.8"></path><path d="M220.66,236.5l71-41c.6-.35,1.08-.1,1.08.54a2.31,2.31,0,0,1-1.08,1.8l-71,41c-.6.35-1.08.1-1.08-.55A2.3,2.3,0,0,1,220.66,236.5Z" style="fill:#e0e0e0"></path><path d="M220.66,243.53l71-41c.6-.34,1.08-.1,1.08.55a2.32,2.32,0,0,1-1.08,1.8l-71,41c-.6.34-1.08.1-1.08-.55A2.32,2.32,0,0,1,220.66,243.53Z" style="fill:#e0e0e0"></path><path d="M220.66,250.57l71-41c.6-.35,1.08-.1,1.08.54a2.31,2.31,0,0,1-1.08,1.8l-71,41c-.6.35-1.08.1-1.08-.54A2.31,2.31,0,0,1,220.66,250.57Z" style="fill:#e0e0e0"></path><path d="M220.66,257.62l71-41c.6-.34,1.08-.1,1.08.55a2.32,2.32,0,0,1-1.08,1.8l-71,41c-.6.34-1.08.1-1.08-.55A2.32,2.32,0,0,1,220.66,257.62Z" style="fill:#e0e0e0"></path><path d="M220.66,236.5l71-41c.6-.35,1.08-.1,1.08.54a2.31,2.31,0,0,1-1.08,1.8l-71,41c-.6.35-1.08.1-1.08-.55A2.3,2.3,0,0,1,220.66,236.5Z" style="fill:#e0e0e0;opacity:0.8"></path><path d="M220.66,243.53l71-41c.6-.34,1.08-.1,1.08.55a2.32,2.32,0,0,1-1.08,1.8l-71,41c-.6.34-1.08.1-1.08-.55A2.32,2.32,0,0,1,220.66,243.53Z" style="fill:#e0e0e0;opacity:0.8"></path><path d="M220.66,250.57l71-41c.6-.35,1.08-.1,1.08.54a2.31,2.31,0,0,1-1.08,1.8l-71,41c-.6.35-1.08.1-1.08-.54A2.31,2.31,0,0,1,220.66,250.57Z" style="fill:#e0e0e0;opacity:0.8"></path><path d="M220.66,257.62l71-41c.6-.34,1.08-.1,1.08.55a2.32,2.32,0,0,1-1.08,1.8l-71,41c-.6.34-1.08.1-1.08-.55A2.32,2.32,0,0,1,220.66,257.62Z" style="fill:#e0e0e0;opacity:0.8"></path><path d="M220.66,288.5l71-41c.6-.35,1.08-.1,1.08.54a2.31,2.31,0,0,1-1.08,1.8l-71,41c-.6.35-1.08.1-1.08-.55A2.3,2.3,0,0,1,220.66,288.5Z" style="fill:#e0e0e0"></path><path d="M220.66,295.53l71-41c.6-.34,1.08-.1,1.08.55a2.32,2.32,0,0,1-1.08,1.8l-71,41c-.6.34-1.08.1-1.08-.55A2.32,2.32,0,0,1,220.66,295.53Z" style="fill:#e0e0e0"></path><path d="M220.66,302.57l71-41c.6-.35,1.08-.1,1.08.54a2.31,2.31,0,0,1-1.08,1.8l-71,41c-.6.35-1.08.1-1.08-.54A2.31,2.31,0,0,1,220.66,302.57Z" style="fill:#e0e0e0"></path><path d="M220.66,309.62l71-41c.6-.34,1.08-.1,1.08.55a2.32,2.32,0,0,1-1.08,1.8l-71,41c-.6.34-1.08.1-1.08-.55A2.32,2.32,0,0,1,220.66,309.62Z" style="fill:#e0e0e0"></path><path d="M220.66,288.5l71-41c.6-.35,1.08-.1,1.08.54a2.31,2.31,0,0,1-1.08,1.8l-71,41c-.6.35-1.08.1-1.08-.55A2.3,2.3,0,0,1,220.66,288.5Z" style="fill:#e0e0e0;opacity:0.8"></path><path d="M220.66,295.53l71-41c.6-.34,1.08-.1,1.08.55a2.32,2.32,0,0,1-1.08,1.8l-71,41c-.6.34-1.08.1-1.08-.55A2.32,2.32,0,0,1,220.66,295.53Z" style="fill:#e0e0e0;opacity:0.8"></path><path d="M220.66,302.57l71-41c.6-.35,1.08-.1,1.08.54a2.31,2.31,0,0,1-1.08,1.8l-71,41c-.6.35-1.08.1-1.08-.54A2.31,2.31,0,0,1,220.66,302.57Z" style="fill:#e0e0e0;opacity:0.8"></path><path d="M220.66,309.62l71-41c.6-.34,1.08-.1,1.08.55a2.32,2.32,0,0,1-1.08,1.8l-71,41c-.6.34-1.08.1-1.08-.55A2.32,2.32,0,0,1,220.66,309.62Z" style="fill:#e0e0e0;opacity:0.8"></path><path d="M221.31,220.29,226,217.6c1-.55,1.73-.1,1.73,1V224a3.81,3.81,0,0,1-1.73,3l-4.66,2.69c-1,.55-1.73.11-1.73-1v-5.38A3.82,3.82,0,0,1,221.31,220.29Z" style="fill:#407BFF"></path><path d="M221.31,220.29,226,217.6c1-.55,1.73-.1,1.73,1V224a3.81,3.81,0,0,1-1.73,3l-4.66,2.69c-1,.55-1.73.11-1.73-1v-5.38A3.82,3.82,0,0,1,221.31,220.29Z" style="fill:#fff;opacity:0.2"></path><path d="M233.93,215.35l28.16-16.26c1.2-.69,2.17-.2,2.17,1.09a4.64,4.64,0,0,1-2.17,3.6L233.93,220c-1.2.69-2.17.2-2.17-1.09A4.64,4.64,0,0,1,233.93,215.35Z" style="fill:#407BFF"></path><path d="M233.93,215.35l28.16-16.26c1.2-.69,2.17-.2,2.17,1.09a4.64,4.64,0,0,1-2.17,3.6L233.93,220c-1.2.69-2.17.2-2.17-1.09A4.64,4.64,0,0,1,233.93,215.35Z" style="fill:#fff;opacity:0.8"></path><path d="M221.31,271.89,226,269.2c1-.56,1.73-.11,1.73,1v5.38a3.82,3.82,0,0,1-1.73,3l-4.66,2.69c-1,.55-1.73.1-1.73-1v-5.38A3.81,3.81,0,0,1,221.31,271.89Z" style="fill:#407BFF"></path><path d="M221.31,271.89,226,269.2c1-.56,1.73-.11,1.73,1v5.38a3.82,3.82,0,0,1-1.73,3l-4.66,2.69c-1,.55-1.73.1-1.73-1v-5.38A3.81,3.81,0,0,1,221.31,271.89Z" style="fill:#fff;opacity:0.2"></path><path d="M233.93,267l28.16-16.27c1.2-.69,2.17-.2,2.17,1.1a4.65,4.65,0,0,1-2.17,3.6l-28.16,16.26c-1.2.69-2.17.2-2.17-1.1A4.64,4.64,0,0,1,233.93,267Z" style="fill:#407BFF"></path><path d="M233.93,267l28.16-16.27c1.2-.69,2.17-.2,2.17,1.1a4.65,4.65,0,0,1-2.17,3.6l-28.16,16.26c-1.2.69-2.17.2-2.17-1.1A4.64,4.64,0,0,1,233.93,267Z" style="fill:#fff;opacity:0.8"></path><path d="M227.94,317.31l4.66-2.69c1-.55,1.74-.1,1.74,1V321a3.82,3.82,0,0,1-1.74,3l-4.66,2.69c-.95.56-1.73.11-1.73-1v-5.38A3.86,3.86,0,0,1,227.94,317.31Z" style="fill:#407BFF"></path><path d="M220.66,335.59l19.23-11.1c.6-.34,1.08-.1,1.08.55a2.32,2.32,0,0,1-1.08,1.8l-19.23,11.1c-.6.34-1.08.1-1.08-.55A2.32,2.32,0,0,1,220.66,335.59Z" style="fill:#e0e0e0"></path><path d="M253.81,302.37l4.66-2.69c.95-.55,1.73-.1,1.73,1v5.38a3.83,3.83,0,0,1-1.73,3l-4.66,2.69c-1,.55-1.74.11-1.74-1v-5.38A3.83,3.83,0,0,1,253.81,302.37Z" style="fill:#407BFF"></path><path d="M246.52,320.65l19.23-11.1c.6-.35,1.08-.1,1.08.55a2.3,2.3,0,0,1-1.08,1.79L246.52,323c-.6.35-1.08.1-1.08-.54A2.31,2.31,0,0,1,246.52,320.65Z" style="fill:#e0e0e0"></path><path d="M279.67,287.43l4.66-2.69c.95-.56,1.73-.11,1.73,1v5.38a3.85,3.85,0,0,1-1.73,3l-4.66,2.69c-1,.55-1.73.1-1.73-1v-5.38A3.81,3.81,0,0,1,279.67,287.43Z" style="fill:#407BFF"></path><path d="M227.94,317.31l4.66-2.69c1-.55,1.74-.1,1.74,1V321a3.82,3.82,0,0,1-1.74,3l-4.66,2.69c-.95.56-1.73.11-1.73-1v-5.38A3.86,3.86,0,0,1,227.94,317.31Z" style="fill:#fff;opacity:0.2"></path><path d="M253.81,302.37l4.66-2.69c.95-.55,1.73-.1,1.73,1v5.38a3.83,3.83,0,0,1-1.73,3l-4.66,2.69c-1,.55-1.74.11-1.74-1v-5.38A3.83,3.83,0,0,1,253.81,302.37Z" style="fill:#fff;opacity:0.2"></path><path d="M279.67,287.43l4.66-2.69c.95-.56,1.73-.11,1.73,1v5.38a3.85,3.85,0,0,1-1.73,3l-4.66,2.69c-1,.55-1.73.1-1.73-1v-5.38A3.81,3.81,0,0,1,279.67,287.43Z" style="fill:#fff;opacity:0.2"></path><path d="M272.38,305.71l19.23-11.1c.6-.35,1.08-.1,1.08.54a2.31,2.31,0,0,1-1.08,1.8l-19.23,11.1c-.59.35-1.08.1-1.08-.55A2.33,2.33,0,0,1,272.38,305.71Z" style="fill:#e0e0e0"></path><g style="clip-path:url(#freepik--clip-path--inject-124)"><path d="M177.09,138.86c-11.22,6.32-20.31,22.07-20.31,35.17s9.09,18.48,20.31,12,20.31-22.22,20.31-35.18S188.3,132.53,177.09,138.86Z" style="fill:#fafafa"></path><path d="M177.09,138.86c-11.22,6.32-20.31,22.07-20.31,35.17s9.09,18.48,20.31,12,20.31-22.22,20.31-35.18S188.3,132.53,177.09,138.86Z" style="fill:none"></path><path d="M177.09,138.86c-11.22,6.32-20.31,22.07-20.31,35.17s9.09,18.48,20.31,12,20.31-22.22,20.31-35.18S188.3,132.53,177.09,138.86Z" style="fill:none"></path><path d="M186.93,179.23l-16.26,4.36a1.77,1.77,0,0,1-2.31-1.86V154.05A11.1,11.1,0,0,1,176,143.78l5.56-1.49c4.23-1.13,7.66,1.63,7.66,6.16v27.69A3.35,3.35,0,0,1,186.93,179.23Z" style="fill:#37474f"></path><path d="M187.71,186.39,186,178.84s0-10.19-1.45-11.13-1.87-1.12-1.87-1.12c1.86-.64,5.78-1.12,7,2.46,1.17,3.38,2.92,11.71,3.75,15.81Z" style="fill:#f28f8f"></path><path d="M187.57,186.43l-5.8-19.75c2.57-1,5.87-1.83,7.47.82,1.44,2.38,3.74,14.85,4.19,17.36Z" style="fill:#407BFF"></path><g style="opacity:0.4"><path d="M187.57,186.43l-5.8-19.75c2.57-1,5.87-1.83,7.47.82,1.44,2.38,3.74,14.85,4.19,17.36Z"></path></g><path d="M188.35,186.22l-5.7,1.53a13,13,0,0,1,1.59-4.65,9.28,9.28,0,0,1,4.68-3.51A33.32,33.32,0,0,0,188.35,186.22Z" style="fill:#407BFF"></path><path d="M188.35,186.22l-5.7,1.53a13,13,0,0,1,1.59-4.65,9.28,9.28,0,0,1,4.68-3.51A33.32,33.32,0,0,0,188.35,186.22Z" style="fill:#407BFF"></path><g style="opacity:0.7000000000000001"><path d="M188.35,186.22l-5.7,1.53a13,13,0,0,1,1.59-4.65,9.28,9.28,0,0,1,4.68-3.51A33.32,33.32,0,0,0,188.35,186.22Z"></path></g><path d="M187.13,186.55l-16,4.27-1.76-5.45s4.67-10.93-1.1-13.74c.73-.55,6.88-2.95,6.88-2.95l6.61-2c1.26-.34,6.35,1.92,7.64,6.93.46,1.77.3,3.36-2.29,12.58C187.14,186.31,187.13,186.43,187.13,186.55Z" style="fill:#407BFF"></path><path d="M185.81,145.69c1.1.4,2.46,3,2.33,9.27-.11,5.32-1.71,7-2.51,7.64a8.6,8.6,0,0,1-3.86.91v3.17s2.08,2,1.95,3.52-3,2.6-4.94,1.7a11.16,11.16,0,0,1-3.59-3.22l0-7.3a1.68,1.68,0,0,1-2.39.15,2.83,2.83,0,0,1-.69-4c1-1.31,2.75-1.5,3.43-.19a9.87,9.87,0,0,1,4.3-4.85C183,150.57,184.72,148.86,185.81,145.69Z" style="fill:#ffa8a7"></path><path d="M182.64,155.11a.92.92,0,0,1-.59.88.49.49,0,0,1-.65-.48.92.92,0,0,1,.59-.88A.49.49,0,0,1,182.64,155.11Z" style="fill:#37474f"></path><path d="M182.8,159.55l1.44.1a1,1,0,0,1-.93.81C182.91,160.43,182.68,160,182.8,159.55Z" style="fill:#f28f8f"></path><path d="M187.72,151.71l-1.25-.59a.84.84,0,0,1,1-.51A.79.79,0,0,1,187.72,151.71Z" style="fill:#37474f"></path><path d="M180.84,154.05l1.25-1.27a.67.67,0,0,0-1,.05A1,1,0,0,0,180.84,154.05Z" style="fill:#37474f"></path><path d="M187.43,153.35a.91.91,0,0,1-.59.88.49.49,0,0,1-.65-.49.93.93,0,0,1,.59-.88A.49.49,0,0,1,187.43,153.35Z" style="fill:#37474f"></path><polygon points="184.51 153.75 184.6 157.72 186.57 156.54 184.51 153.75" style="fill:#f28f8f"></polygon><path d="M181.77,163.51c-1.58.2-4.84.07-5.35-1.17a2.54,2.54,0,0,0,1.14,1.45c1,.64,4.21.78,4.21.78Z" style="fill:#f28f8f"></path><polygon points="171.22 190.81 170.55 188.43 172.31 190.52 171.22 190.81" style="fill:#407BFF"></polygon><path d="M169.91,191.16A70.19,70.19,0,0,0,167,181.1c-1.68-4.61.2-8.59,1.33-9.47s6.88-2.95,6.88-2.95c2.08,5.92,2.65,13.85,2.7,20.34Z" style="fill:#407BFF"></path><path d="M169.91,191.16A70.19,70.19,0,0,0,167,181.1c-1.68-4.61.2-8.59,1.33-9.47s6.88-2.95,6.88-2.95c2.08,5.92,2.65,13.85,2.7,20.34Z" style="opacity:0.4"></path><path d="M167.07,191.92l-5.71,1.53a3.51,3.51,0,0,1-.45-.36s2.7-10.42,3.56-13.88,1.52-5.84,3.84-7.58c4.17,2.71,2.24,10.24,2.24,10.24Z" style="fill:#407BFF"></path><path d="M167.07,191.92l-5.71,1.53a3.51,3.51,0,0,1-.45-.36s2.7-10.42,3.56-13.88,1.52-5.84,3.84-7.58c4.17,2.71,2.24,10.24,2.24,10.24Z" style="opacity:0.4"></path><path d="M177.09,138.86c-11.22,6.32-20.31,22.07-20.31,35.17s9.09,18.48,20.31,12,20.31-22.22,20.31-35.18S188.3,132.53,177.09,138.86Z" style="fill:none"></path><path d="M177.09,138.86c-11.22,6.32-20.31,22.07-20.31,35.17s9.09,18.48,20.31,12,20.31-22.22,20.31-35.18S188.3,132.53,177.09,138.86Z" style="fill:none"></path></g></g><g id="freepik--graduation-cap--inject-124"><path d="M83.93,125.33V105.52h0c-.06-3.84,2.44-7.69,7.51-10.61,10-5.79,26.26-5.79,36.28,0,5.07,2.92,7.57,6.77,7.51,10.61h0v19.74c0,3.82-2.46,10.65-7.51,13.56-10,5.79-26.26,5.79-36.28,0-5-2.88-7.5-9.66-7.51-13.45h0Z" style="fill:#ebebeb"></path><polygon points="109.58 80.94 151.91 105.38 109.58 129.82 67.25 105.38 109.58 80.94" style="fill:#f5f5f5"></polygon><path d="M88.4,117.59l20.85-11.9A.75.75,0,0,1,110,107L89.89,118.45Z" style="fill:#e0e0e0"></path><polygon points="151.91 105.38 151.91 107.13 109.58 131.56 109.58 129.82 151.91 105.38" style="fill:#e6e6e6"></polygon><polygon points="67.25 105.38 67.25 107.13 109.58 131.56 109.58 129.82 67.25 105.38" style="fill:#f0f0f0"></polygon><path d="M87.35,118.73l1.29.74a2.24,2.24,0,0,1,.79-.77l.45-.26-1.47-.84A3.46,3.46,0,0,0,87.35,118.73Z" style="fill:#e0e0e0"></path><polygon points="135.28 116.73 109.58 134.18 83.95 116.77 109.58 131.56 135.28 116.73" style="fill:#e0e0e0"></polygon><path d="M85.7,139.31a2.53,2.53,0,0,0,2.32,0l1.91,12.33c0,2.33-6.05,2.33-6.05,0Z" style="fill:#f5f5f5"></path><path d="M85.59,146.35l-.38,6.76a1.94,1.94,0,0,1-.36-.15Z" style="fill:#ebebeb"></path><path d="M88.45,153.16l-.8-11L88.84,153A3.54,3.54,0,0,1,88.45,153.16Z" style="fill:#ebebeb"></path><path d="M87.09,153.38h-.38l.2-8.73Z" style="fill:#ebebeb"></path><path d="M86.85,140.34a2.17,2.17,0,0,0,1.23-.42.74.74,0,0,0,.18-1,.73.73,0,0,0-1-.19.51.51,0,0,1-.71,0,.75.75,0,1,0-.89,1.2A2.06,2.06,0,0,0,86.85,140.34Z" style="fill:#e0e0e0"></path><path d="M86.9,138.42a.74.74,0,0,0,.75-.74V120.2a2.25,2.25,0,0,1,1.12-1.94L110,106.16a.74.74,0,0,0,.28-1,.73.73,0,0,0-1-.28L88,117a3.74,3.74,0,0,0-1.87,3.23v17.48A.74.74,0,0,0,86.9,138.42Z" style="fill:#fafafa"></path><path d="M88.54,137.68a1.64,1.64,0,1,0-1.64,1.63A1.63,1.63,0,0,0,88.54,137.68Z" style="fill:#f5f5f5"></path><path d="M85.28,137.77a1.27,1.27,0,0,0,1.82.62,1.36,1.36,0,0,0,0-2.33,1.63,1.63,0,1,1-1.85,1.71Z" style="fill:#ebebeb"></path></g><g id="freepik--speech-bubbles--inject-124"><polygon points="376.61 128.03 368.88 123.58 373.13 122.68 377.36 125.63 376.61 128.03" style="fill:#e0e0e0"></polygon><path d="M363.08,88.2c0-12-7.35-17.57-16.38-12.36l-13.34,7.7c-9,5.21-16.37,19.25-16.37,31.29,0,.49,0,1,0,1.43,0,.27,0,.5,0,.76s.05.47.07.7.06.53.1.79a19.76,19.76,0,0,0,1.06,4.16c.21.5.43,1,.67,1.42a5.51,5.51,0,0,0,.38.67l.13.21a6.31,6.31,0,0,0,.77,1c.16.18.31.37.48.54l.52.5c.18.14.35.31.54.45a4.42,4.42,0,0,0,.57.39l.59.34a7.72,7.72,0,0,0,2.45.83.42.42,0,0,1,.2,0c.23,0,.44.05.67.05a4.45,4.45,0,0,0,.73,0,8,8,0,0,0,1.91-.21,11.27,11.27,0,0,0,1.11-.28v0a15.28,15.28,0,0,0,3.34-1.48l13.34-7.7a22.44,22.44,0,0,0,2.62-1.78c0-.16,0-.3,0-.45s0-.47,0-.65c0-.4,0-.81,0-1.22C349.21,105.07,355.37,93,363.08,88.2Z" style="fill:#e0e0e0"></path><path d="M365.33,79.55l-7.75-4.46c.05,0,.79,5.39.79,5.39l5.75.68Z" style="fill:#e0e0e0"></path><polygon points="329.52 131.96 322.36 127.9 326.67 126.05 329.52 131.96" style="fill:#e0e0e0"></polygon><path d="M333.36,127.22a14.59,14.59,0,0,1-2.73,8.25c-.32.42.17.79.53.6a13.82,13.82,0,0,0,4.26-3.43,21.71,21.71,0,0,0,4.61-9.27Z" style="fill:#e0e0e0"></path><path d="M330.71,136.05l7.75,4.46s4.35-3.67,4.35-11.1l-8.41-.57S334.2,133.68,330.71,136.05Z" style="fill:#e0e0e0"></path><path d="M351.35,114.19q0,.56,0,1.08c0,.2,0,.37,0,.56s0,.35.06.53,0,.4.07.6a12.87,12.87,0,0,0,.62,2.6,3.43,3.43,0,0,0,.16.45,6.14,6.14,0,0,0,.25.59,4.53,4.53,0,0,0,.27.54,3.41,3.41,0,0,0,.28.5l.1.16a7.64,7.64,0,0,0,.58.79,3.52,3.52,0,0,0,.36.41l.38.37a4.35,4.35,0,0,0,.41.34,4,4,0,0,0,.43.29c.15.09.29.18.45.26l.46.22.48.17h0a8.89,8.89,0,0,0,.89.22l.15,0a2.74,2.74,0,0,0,.5,0,2.4,2.4,0,0,0,.54,0,6.39,6.39,0,0,0,1.28-.13,8.84,8.84,0,0,0,1-.23,11.56,11.56,0,0,0,2.51-1.11l10-5.78a16.06,16.06,0,0,0,2.51-1.79h0c.28-.24.56-.5.84-.76a18.46,18.46,0,0,0,1.43-1.49L379,113c.17-.2.33-.41.5-.62a1,1,0,0,1,.15-.2,28.61,28.61,0,0,0,1.84-2.75c.15-.25.29-.51.44-.77s.29-.52.43-.79.27-.54.41-.8l.38-.82c.13-.27.25-.56.37-.82.21-.48.4-1,.57-1.46,0-.09.07-.18.1-.27.11-.28.2-.56.29-.84.18-.54.34-1.08.5-1.64a30.64,30.64,0,0,0,.79-4c0-.23.05-.45.08-.68s0-.39.05-.59,0-.4,0-.6q0-.56,0-1.11c0-9-5.51-13.21-12.29-9.3l-10,5.79C356.86,94.62,351.35,105.15,351.35,114.19Z" style="fill:#e0e0e0"></path><polygon points="389.51 88.78 381.82 84.36 378.92 86.41 387.89 91.84 389.51 88.78" style="fill:#e0e0e0"></polygon><polygon points="363.11 128.45 355.38 124 361.44 122.19 363.11 128.45" style="fill:#e0e0e0"></polygon><path d="M372.13,118.59c0,1.6,2,3.78,4.29,4.19.31.06.23.74-.14,1a6.92,6.92,0,0,1-4.47.74,5.61,5.61,0,0,1-4.8-3Z" style="fill:#407BFF"></path><path d="M354.44,80.29,341.09,88c-9,5.21-16.36,19.25-16.36,31.28,0,.5,0,1,0,1.44,0,.27,0,.5,0,.76s.05.46.08.69.06.55.1.8a19.51,19.51,0,0,0,1,4.15c.21.51.43,1,.67,1.43a5.19,5.19,0,0,0,.38.66,1.91,1.91,0,0,0,.14.21,6.51,6.51,0,0,0,.76,1.06c.16.18.32.38.49.54l.51.5c.18.14.36.31.54.45a5.23,5.23,0,0,0,.57.39l.6.34a7.75,7.75,0,0,0,2.44.83.31.31,0,0,1,.2,0c.23,0,.45,0,.67,0a6,6,0,0,0,.73,0,8.46,8.46,0,0,0,1.91-.21,11.27,11.27,0,0,0,1.11-.28v0a16,16,0,0,0,3.34-1.47h0a14.49,14.49,0,0,1-2.74,8.24c-.32.43.17.8.54.61a13.73,13.73,0,0,0,4.26-3.44,21.85,21.85,0,0,0,4.61-9.26l-1,.55,7.63-4.4a20.61,20.61,0,0,0,2.13-1.41,6.51,6.51,0,0,1-.13-.77c0-.17-.06-.42-.08-.68a5.77,5.77,0,0,1-.07-.67v-.12a4.19,4.19,0,0,1,0-.5c0-.38,0-.78,0-1.18,0-10.12,6-21.53,13.72-26l.85-.5C370.61,80.47,363.34,75.15,354.44,80.29Z" style="fill:#f0f0f0"></path><path d="M381.39,89.37l-10,5.78c-6.77,3.92-12.29,14.45-12.29,23.49,0,.37,0,.73,0,1.08s0,.37,0,.56,0,.35.05.53a5.59,5.59,0,0,0,.08.59,12.18,12.18,0,0,0,.62,2.61,2.41,2.41,0,0,0,.16.45,5,5,0,0,0,.24.58,5.64,5.64,0,0,0,.27.55,3.45,3.45,0,0,0,.29.5.76.76,0,0,0,.09.16c.19.28.38.54.58.79a4.89,4.89,0,0,0,.37.41l.38.37a4.35,4.35,0,0,0,.41.34,3.13,3.13,0,0,0,.42.29c.15.09.29.18.45.26l.46.22.48.17h0a8.89,8.89,0,0,0,.89.22l.15,0a2.74,2.74,0,0,0,.5,0,2,2,0,0,0,.55,0,6.49,6.49,0,0,0,1.28-.12,9.22,9.22,0,0,0,1-.23,11.15,11.15,0,0,0,2.51-1.11l3.38-1.94a5.61,5.61,0,0,0,4.8,2.95,6.93,6.93,0,0,0,4.47-.75c.36-.23.45-.91.13-1-2.29-.41-4.28-2.59-4.28-4.19l1.52-.88a16.54,16.54,0,0,0,2.51-1.79h0c.28-.24.56-.5.83-.76a18.56,18.56,0,0,0,1.44-1.49c.18-.21.36-.41.54-.65s.33-.4.5-.61l.15-.2a28.61,28.61,0,0,0,1.84-2.75l.45-.77c.15-.26.29-.52.43-.79s.26-.54.4-.8l.39-.82c.13-.28.24-.56.36-.82.21-.48.41-1,.58-1.46l.09-.27c.11-.28.21-.56.29-.84.19-.55.34-1.08.51-1.64a30.64,30.64,0,0,0,.79-4c0-.23.05-.45.07-.68s0-.4.05-.59,0-.4,0-.6c0-.37,0-.75,0-1.12C393.68,89.63,388.16,85.46,381.39,89.37Z" style="fill:#f0f0f0"></path></g></svg>