<?xml version="1.0" encoding="UTF-8"?>
<svg id="Layer_1" data-name="Layer 1" xmlns="http://www.w3.org/2000/svg" xmlns:xlink="http://www.w3.org/1999/xlink" viewBox="0 0 135.22 40.97">
  <defs>
    <style>
      .cls-1, .cls-2 {
        fill: #fff;
      }

      .cls-3 {
        fill: url(#linear-gradient);
      }

      .cls-2 {
        font-family: FranklinGothic-Heavy, 'Franklin Gothic Heavy';
        font-size: 34.88px;
      }
    </style>
    <linearGradient id="linear-gradient" x1="3.38" y1="20.47" x2="45.2" y2="20.47" gradientUnits="userSpaceOnUse">
      <stop offset="0" stop-color="#fff"/>
      <stop offset="1" stop-color="#f2f2f2"/>
    </linearGradient>
  </defs>
  <g id="cDAAN">
    <text class="cls-2" transform="translate(49.09 31.63) scale(.75 1)"><tspan x="0" y="0">Somcv</tspan></text>
    <path class="cls-3" d="M45.2,20.47c0,2.72-.63,5.47-1.81,7.91-1.18,2.45-2.92,4.58-4.98,6.2-2.07,1.61-4.46,2.73-6.91,3.27-2.45,.54-4.93,.49-7.2,.03-2.27-.47-4.36-1.41-6.12-2.62-1.77-1.21-3.23-2.68-4.38-4.28-2.3-3.21-3.4-6.87-3.4-10.5,0-3.64,1.1-7.3,3.4-10.51,1.15-1.6,2.61-3.07,4.38-4.28,1.76-1.21,3.85-2.15,6.12-2.62,2.27-.46,4.75-.51,7.2,.03,2.45,.54,4.84,1.65,6.91,3.27,2.07,1.62,3.8,3.75,4.98,6.2,1.19,2.44,1.81,5.19,1.81,7.91Zm-14,0c-.02-1.82-.34-3.62-1.35-5.56-.5-.96-1.2-1.91-2.11-2.76-.91-.86-2.07-1.62-3.44-2.09-1.37-.46-2.92-.69-4.52-.5-1.59,.18-3.21,.78-4.64,1.75-2.88,1.93-4.77,5.5-4.74,9.16-.02,3.66,1.87,7.23,4.74,9.16,1.43,.97,3.05,1.57,4.64,1.75,1.6,.18,3.15-.04,4.52-.5,1.38-.47,2.53-1.23,3.44-2.09,.92-.85,1.61-1.8,2.11-2.76,1.01-1.94,1.34-3.73,1.35-5.56Z"/>
    <circle class="cls-1" cx="20.54" cy="20.47" r="3.28"/>
  </g>
</svg>